<mxfile host="Electron" modified="2023-07-31T16:59:22.063Z" agent="Mozilla/5.0 (Macintosh; Intel Mac OS X 10_15_7) AppleWebKit/537.36 (KHTML, like Gecko) draw.io/21.6.5 Chrome/114.0.5735.243 Electron/25.3.1 Safari/537.36" etag="XLZ8AbPY6km6Yjxd_OYN" version="21.6.5" type="device" pages="6">
  <diagram id="3eCzAgp3uvRKuEF0EN03" name="System">
    <mxGraphModel dx="954" dy="674" grid="1" gridSize="10" guides="1" tooltips="1" connect="1" arrows="1" fold="1" page="1" pageScale="1" pageWidth="1654" pageHeight="1169" math="0" shadow="0">
      <root>
        <mxCell id="6-QDvSkl0guhxUkeRazs-0" />
        <mxCell id="6-QDvSkl0guhxUkeRazs-1" parent="6-QDvSkl0guhxUkeRazs-0" />
        <mxCell id="6u02mwgNspcbehrfP_NK-0" value="&lt;div style=&quot;box-sizing: border-box ; width: 100% ; line-height: 30px ; background: rgba(125 , 125 , 125 , 0.4) ; padding: 0px 5px&quot;&gt;audit *&lt;/div&gt;&lt;table style=&quot;width: 100% ; padding: 0px 2px&quot;&gt;&lt;tbody&gt;&lt;tr&gt;&lt;td&gt;&lt;/td&gt;&lt;td&gt;created_by&lt;/td&gt;&lt;td&gt;nvarchar(510)&lt;/td&gt;&lt;td&gt;null&lt;/td&gt;&lt;/tr&gt;&lt;tr&gt;&lt;td&gt;&lt;/td&gt;&lt;td&gt;created_at&lt;/td&gt;&lt;td&gt;datetime2&lt;/td&gt;&lt;td&gt;&lt;/td&gt;&lt;/tr&gt;&lt;tr&gt;&lt;td&gt;&lt;/td&gt;&lt;td&gt;updated_by&lt;/td&gt;&lt;td&gt;nvarchar(510)&lt;br&gt;&lt;/td&gt;&lt;td&gt;null&lt;/td&gt;&lt;/tr&gt;&lt;tr&gt;&lt;td&gt;&lt;/td&gt;&lt;td&gt;updated_at&lt;/td&gt;&lt;td&gt;datetime2&lt;/td&gt;&lt;td&gt;&lt;br&gt;&lt;/td&gt;&lt;/tr&gt;&lt;tr&gt;&lt;td&gt;&lt;br&gt;&lt;/td&gt;&lt;td&gt;deleted_at&lt;/td&gt;&lt;td&gt;datetime2&lt;/td&gt;&lt;td&gt;null&lt;/td&gt;&lt;/tr&gt;&lt;/tbody&gt;&lt;/table&gt;" style="fontFamily=Lucida Console;fontSize=11;align=left;overflow=fill;strokeColor=none;labelBorderColor=#999999;html=1;" parent="6-QDvSkl0guhxUkeRazs-1" vertex="1">
          <mxGeometry x="40" y="400" width="240" height="120" as="geometry" />
        </mxCell>
        <mxCell id="6u02mwgNspcbehrfP_NK-1" value="&lt;div style=&quot;box-sizing: border-box ; width: 100% ; line-height: 30px ; background: rgba(125 , 125 , 125 , 0.4) ; padding: 0px 5px&quot;&gt;temporal *&lt;/div&gt;&lt;table style=&quot;width: 100% ; padding: 0px 2px&quot;&gt;&lt;tbody&gt;&lt;tr&gt;&lt;td&gt;&lt;/td&gt;&lt;td&gt;valid_from&lt;/td&gt;&lt;td&gt;datetime2&lt;/td&gt;&lt;td&gt;&lt;/td&gt;&lt;/tr&gt;&lt;tr&gt;&lt;td&gt;&lt;/td&gt;&lt;td&gt;valid_to&lt;/td&gt;&lt;td&gt;datetime2&lt;/td&gt;&lt;td&gt;&lt;br&gt;&lt;/td&gt;&lt;/tr&gt;&lt;/tbody&gt;&lt;/table&gt;" style="fontFamily=Lucida Console;fontSize=11;align=left;overflow=fill;strokeColor=none;labelBorderColor=#999999;html=1;" parent="6-QDvSkl0guhxUkeRazs-1" vertex="1">
          <mxGeometry x="290" y="400" width="240" height="70" as="geometry" />
        </mxCell>
        <mxCell id="6u02mwgNspcbehrfP_NK-2" value="&lt;div style=&quot;box-sizing: border-box ; width: 100% ; line-height: 30px ; background: rgba(125 , 125 , 125 , 0.4) ; padding: 0px 5px&quot;&gt;dbo.Migrations&lt;/div&gt;&lt;table style=&quot;width: 100% ; padding: 0px 2px&quot;&gt;&lt;tbody&gt;&lt;tr&gt;&lt;td&gt;PK&lt;/td&gt;&lt;td&gt;id&lt;/td&gt;&lt;td&gt;int&lt;/td&gt;&lt;td&gt;&lt;br&gt;&lt;/td&gt;&lt;/tr&gt;&lt;tr&gt;&lt;td&gt;&lt;/td&gt;&lt;td&gt;timestamp&lt;/td&gt;&lt;td&gt;bigint&lt;/td&gt;&lt;td&gt;&lt;/td&gt;&lt;/tr&gt;&lt;tr&gt;&lt;td&gt;&lt;/td&gt;&lt;td&gt;name&lt;/td&gt;&lt;td&gt;varchar(255)&lt;br&gt;&lt;/td&gt;&lt;td&gt;&lt;br&gt;&lt;/td&gt;&lt;/tr&gt;&lt;/tbody&gt;&lt;/table&gt;" style="fontFamily=Lucida Console;fontSize=11;align=left;overflow=fill;strokeColor=none;labelBorderColor=#999999;html=1;" parent="6-QDvSkl0guhxUkeRazs-1" vertex="1">
          <mxGeometry x="40" y="120" width="240" height="90" as="geometry" />
        </mxCell>
        <mxCell id="6u02mwgNspcbehrfP_NK-3" value="&lt;div style=&quot;box-sizing: border-box ; width: 100% ; line-height: 30px ; background: rgba(125 , 125 , 125 , 0.4) ; padding: 0px 5px&quot;&gt;dbo.Seeds&lt;/div&gt;&lt;table style=&quot;width: 100% ; padding: 0px 2px&quot;&gt;&lt;tbody&gt;&lt;tr&gt;&lt;td&gt;PK&lt;/td&gt;&lt;td&gt;id&lt;/td&gt;&lt;td&gt;int&lt;/td&gt;&lt;td&gt;&lt;br&gt;&lt;/td&gt;&lt;/tr&gt;&lt;tr&gt;&lt;td&gt;&lt;/td&gt;&lt;td&gt;timestamp&lt;/td&gt;&lt;td&gt;bigint&lt;/td&gt;&lt;td&gt;&lt;/td&gt;&lt;/tr&gt;&lt;tr&gt;&lt;td&gt;&lt;/td&gt;&lt;td&gt;name&lt;/td&gt;&lt;td&gt;varchar(255)&lt;br&gt;&lt;/td&gt;&lt;td&gt;&lt;br&gt;&lt;/td&gt;&lt;/tr&gt;&lt;/tbody&gt;&lt;/table&gt;" style="fontFamily=Lucida Console;fontSize=11;align=left;overflow=fill;strokeColor=none;labelBorderColor=#999999;html=1;" parent="6-QDvSkl0guhxUkeRazs-1" vertex="1">
          <mxGeometry x="40" y="220" width="240" height="90" as="geometry" />
        </mxCell>
        <mxCell id="yevTLyaCzT0ecKo8r5US-0" value="These tables represent the columns regarding &lt;b&gt;audit&lt;/b&gt; and &lt;b&gt;temporal tables&lt;/b&gt; contexts.&lt;br&gt;Basically, these columns exists everytime you see &quot;&amp;nbsp;&lt;b&gt;audit *&amp;nbsp;&lt;/b&gt;&quot; or &quot; &lt;b&gt;temporal *&lt;/b&gt; &quot; as the last column on a table." style="rounded=0;whiteSpace=wrap;html=1;fillColor=none;dashed=1;shadow=0;perimeterSpacing=0;sketch=0;align=left;verticalAlign=bottom;spacing=10;" parent="6-QDvSkl0guhxUkeRazs-1" vertex="1">
          <mxGeometry x="30" y="390" width="610" height="180" as="geometry" />
        </mxCell>
        <mxCell id="IDJeKOr4qsKQTx1Im6iN-0" value="&lt;font style=&quot;font-size: 24px&quot;&gt;&quot;System&quot; tables&lt;br&gt;&lt;/font&gt;Representation of the tables supporting migrations and a couple of extras." style="text;html=1;align=left;verticalAlign=middle;resizable=0;points=[];autosize=1;" parent="6-QDvSkl0guhxUkeRazs-1" vertex="1">
          <mxGeometry x="10" y="10" width="410" height="40" as="geometry" />
        </mxCell>
      </root>
    </mxGraphModel>
  </diagram>
  <diagram id="aF8ksbiZ8e6A-cebIr0f" name="Innovations">
    <mxGraphModel dx="578" dy="1577" grid="1" gridSize="10" guides="1" tooltips="1" connect="1" arrows="1" fold="1" page="1" pageScale="1" pageWidth="1654" pageHeight="1169" math="0" shadow="0">
      <root>
        <mxCell id="0" />
        <mxCell id="1" parent="0" />
        <mxCell id="bM6USqFYMZth9pwpu3Yk-4" value="&lt;div style=&quot;box-sizing: border-box ; width: 100% ; line-height: 30px ; background: rgba(125 , 125 , 125 , 0.4) ; padding: 0px 5px&quot;&gt;dbo.comment&lt;/div&gt;&lt;table style=&quot;width: 100% ; padding: 0px 2px&quot;&gt;&lt;tbody&gt;&lt;tr&gt;&lt;td&gt;PK&lt;/td&gt;&lt;td&gt;id&lt;/td&gt;&lt;td&gt;ui&lt;/td&gt;&lt;td&gt;&lt;/td&gt;&lt;/tr&gt;&lt;tr&gt;&lt;td&gt;FK&lt;/td&gt;&lt;td&gt;innovation_id&lt;/td&gt;&lt;td&gt;ui&lt;/td&gt;&lt;td&gt;&lt;/td&gt;&lt;/tr&gt;&lt;tr&gt;&lt;td&gt;FK&lt;/td&gt;&lt;td&gt;innovation_action_id&lt;/td&gt;&lt;td&gt;ui&lt;/td&gt;&lt;td&gt;null&lt;/td&gt;&lt;/tr&gt;&lt;tr&gt;&lt;td&gt;FK&lt;/td&gt;&lt;td&gt;reply_to_id&lt;/td&gt;&lt;td&gt;ui&lt;/td&gt;&lt;td&gt;null&lt;/td&gt;&lt;/tr&gt;&lt;tr&gt;&lt;td&gt;FK&lt;/td&gt;&lt;td&gt;organisation_unit_id&lt;/td&gt;&lt;td&gt;ui&lt;/td&gt;&lt;td&gt;null&lt;/td&gt;&lt;/tr&gt;&lt;tr&gt;&lt;td&gt;FK&lt;/td&gt;&lt;td&gt;user_id&lt;/td&gt;&lt;td&gt;nvarchar(255)&lt;/td&gt;&lt;td&gt;&lt;br&gt;&lt;/td&gt;&lt;/tr&gt;&lt;tr&gt;&lt;td&gt;&lt;br&gt;&lt;/td&gt;&lt;td&gt;message&lt;/td&gt;&lt;td&gt;nvarchar(max)&lt;/td&gt;&lt;td&gt;&lt;br&gt;&lt;/td&gt;&lt;/tr&gt;&lt;tr&gt;&lt;td&gt;&lt;/td&gt;&lt;td&gt;audit *&lt;/td&gt;&lt;td&gt;&lt;/td&gt;&lt;td&gt;&lt;/td&gt;&lt;/tr&gt;&lt;/tbody&gt;&lt;/table&gt;" style="fontFamily=Lucida Console;fontSize=11;align=left;overflow=fill;strokeColor=none;labelBorderColor=#999999;html=1;" parent="1" vertex="1">
          <mxGeometry x="1680" y="720" width="300" height="170" as="geometry" />
        </mxCell>
        <mxCell id="bM6USqFYMZth9pwpu3Yk-5" value="&lt;div style=&quot;box-sizing: border-box ; width: 100% ; line-height: 30px ; background: rgba(125 , 125 , 125 , 0.4) ; padding: 0px 5px&quot;&gt;dbo.innovation&lt;/div&gt;&lt;table style=&quot;width: 100% ; padding: 0px 2px&quot;&gt;&lt;tbody&gt;&lt;tr&gt;&lt;td&gt;PK&lt;/td&gt;&lt;td&gt;id&lt;/td&gt;&lt;td&gt;ui&lt;/td&gt;&lt;td&gt;&lt;/td&gt;&lt;/tr&gt;&lt;tr&gt;&lt;td&gt;&lt;br&gt;&lt;/td&gt;&lt;td&gt;name&lt;/td&gt;&lt;td&gt;nvarchar(100)&lt;br&gt;&lt;/td&gt;&lt;td&gt;&lt;/td&gt;&lt;/tr&gt;&lt;tr&gt;&lt;td&gt;&lt;br&gt;&lt;/td&gt;&lt;td&gt;description&lt;/td&gt;&lt;td&gt;nvarchar(max)&lt;br&gt;&lt;/td&gt;&lt;td&gt;null&lt;/td&gt;&lt;/tr&gt;&lt;tr&gt;&lt;td&gt;&lt;br&gt;&lt;/td&gt;&lt;td&gt;status&lt;/td&gt;&lt;td&gt;nvarchar(255)&lt;br&gt;&lt;/td&gt;&lt;td&gt;&lt;br&gt;&lt;/td&gt;&lt;/tr&gt;&lt;tr&gt;&lt;td&gt;FK&lt;/td&gt;&lt;td&gt;owner_id&lt;/td&gt;&lt;td&gt;nvarchar(255)&lt;/td&gt;&lt;td&gt;&lt;br&gt;&lt;/td&gt;&lt;/tr&gt;&lt;tr&gt;&lt;td&gt;&lt;br&gt;&lt;/td&gt;&lt;td&gt;survey_id&lt;/td&gt;&lt;td&gt;nvarchar(255)&lt;br&gt;&lt;/td&gt;&lt;td&gt;null&lt;/td&gt;&lt;/tr&gt;&lt;tr&gt;&lt;td&gt;&lt;br&gt;&lt;/td&gt;&lt;td&gt;submitted_at&lt;/td&gt;&lt;td&gt;datetime2&lt;/td&gt;&lt;td&gt;null&lt;/td&gt;&lt;/tr&gt;&lt;tr&gt;&lt;td&gt;&lt;br&gt;&lt;/td&gt;&lt;td&gt;country_name&lt;/td&gt;&lt;td&gt;nvarchar(100)&lt;/td&gt;&lt;td&gt;&lt;br&gt;&lt;/td&gt;&lt;/tr&gt;&lt;tr&gt;&lt;td&gt;&lt;br&gt;&lt;/td&gt;&lt;td&gt;postcode&lt;/td&gt;&lt;td&gt;nvarchar(20)&lt;/td&gt;&lt;td&gt;null&lt;/td&gt;&lt;/tr&gt;&lt;tr&gt;&lt;td&gt;&lt;br&gt;&lt;/td&gt;&lt;td&gt;has_final_product&lt;br&gt;&lt;/td&gt;&lt;td&gt;nvarchar(255)&lt;/td&gt;&lt;td&gt;null&lt;/td&gt;&lt;/tr&gt;&lt;tr&gt;&lt;td&gt;&lt;br&gt;&lt;/td&gt;&lt;td&gt;other_category_description&lt;/td&gt;&lt;td&gt;nvarchar(255)&lt;br&gt;&lt;/td&gt;&lt;td&gt;null&lt;/td&gt;&lt;/tr&gt;&lt;tr&gt;&lt;td&gt;&lt;br&gt;&lt;/td&gt;&lt;td&gt;main_category&lt;/td&gt;&lt;td&gt;nvarchar(255)&lt;/td&gt;&lt;td&gt;null&lt;/td&gt;&lt;/tr&gt;&lt;tr&gt;&lt;td&gt;&lt;br&gt;&lt;/td&gt;&lt;td&gt;other_main_category_description&lt;br&gt;&lt;/td&gt;&lt;td&gt;nvarchar(255)&lt;/td&gt;&lt;td&gt;null&lt;/td&gt;&lt;/tr&gt;&lt;tr&gt;&lt;td&gt;&lt;br&gt;&lt;/td&gt;&lt;td&gt;main_purpose&lt;/td&gt;&lt;td&gt;nvarchar(255)&lt;br&gt;&lt;/td&gt;&lt;td&gt;null&lt;/td&gt;&lt;/tr&gt;&lt;tr&gt;&lt;td&gt;&lt;br&gt;&lt;/td&gt;&lt;td&gt;more_support_description&lt;/td&gt;&lt;td&gt;nvarchar(500)&lt;/td&gt;&lt;td&gt;null&lt;/td&gt;&lt;/tr&gt;&lt;tr&gt;&lt;td&gt;&lt;br&gt;&lt;/td&gt;&lt;td&gt;&lt;b&gt;other_care_setting&lt;/b&gt;&lt;/td&gt;&lt;td&gt;nvarchar(100)&lt;/td&gt;&lt;td&gt;null&lt;/td&gt;&lt;/tr&gt;&lt;tr&gt;&lt;td&gt;&lt;br&gt;&lt;/td&gt;&lt;td&gt;has_problem_tackle_knowledge&lt;br&gt;&lt;/td&gt;&lt;td&gt;nvarchar(255)&lt;/td&gt;&lt;td&gt;null&lt;/td&gt;&lt;/tr&gt;&lt;tr&gt;&lt;td&gt;&lt;br&gt;&lt;/td&gt;&lt;td&gt;problems_tackled&lt;br&gt;&lt;/td&gt;&lt;td&gt;nvarchar(max)&lt;/td&gt;&lt;td&gt;null&lt;/td&gt;&lt;/tr&gt;&lt;tr&gt;&lt;td&gt;&lt;br&gt;&lt;/td&gt;&lt;td&gt;&lt;strike&gt;problems_trackled&lt;/strike&gt;&lt;/td&gt;&lt;td&gt;nvarchar(255)&lt;br&gt;&lt;/td&gt;&lt;td&gt;null&lt;/td&gt;&lt;/tr&gt;&lt;tr&gt;&lt;td&gt;&lt;br&gt;&lt;/td&gt;&lt;td&gt;problems_consequences&lt;/td&gt;&lt;td&gt;nvarchar(max)&lt;br&gt;&lt;/td&gt;&lt;td&gt;null&lt;/td&gt;&lt;/tr&gt;&lt;tr&gt;&lt;td&gt;&lt;br&gt;&lt;/td&gt;&lt;td&gt;intervention&lt;/td&gt;&lt;td&gt;nvarchar(max)&lt;br&gt;&lt;/td&gt;&lt;td&gt;null&lt;/td&gt;&lt;/tr&gt;&lt;tr&gt;&lt;td&gt;&lt;br&gt;&lt;/td&gt;&lt;td&gt;intervention_impact&lt;/td&gt;&lt;td&gt;nvarchar(max)&lt;br&gt;&lt;/td&gt;&lt;td&gt;null&lt;/td&gt;&lt;/tr&gt;&lt;tr&gt;&lt;td&gt;&lt;br&gt;&lt;/td&gt;&lt;td&gt;impact_patients&lt;br&gt;&lt;/td&gt;&lt;td&gt;bit&lt;/td&gt;&lt;td&gt;null&lt;/td&gt;&lt;/tr&gt;&lt;tr&gt;&lt;td&gt;&lt;br&gt;&lt;/td&gt;&lt;td&gt;impact_clinicians&lt;/td&gt;&lt;td&gt;bit&lt;/td&gt;&lt;td&gt;null&lt;/td&gt;&lt;/tr&gt;&lt;tr&gt;&lt;td&gt;&lt;br&gt;&lt;/td&gt;&lt;td&gt;clinicians_impact_details&lt;br&gt;&lt;/td&gt;&lt;td&gt;nvarchar(max)&lt;/td&gt;&lt;td&gt;null&lt;/td&gt;&lt;/tr&gt;&lt;tr&gt;&lt;td&gt;&lt;br&gt;&lt;/td&gt;&lt;td&gt;has_benefits&lt;/td&gt;&lt;td&gt;nvarchar(255)&lt;br&gt;&lt;/td&gt;&lt;td&gt;null&lt;/td&gt;&lt;/tr&gt;&lt;tr&gt;&lt;td&gt;&lt;br&gt;&lt;/td&gt;&lt;td&gt;&lt;strike&gt;other_patients_citizens_benefit&lt;/strike&gt;&lt;/td&gt;&lt;td&gt;nvarchar(255)&lt;/td&gt;&lt;td&gt;null&lt;/td&gt;&lt;/tr&gt;&lt;tr&gt;&lt;td&gt;&lt;br&gt;&lt;/td&gt;&lt;td&gt;other_general_benefit&lt;br&gt;&lt;/td&gt;&lt;td&gt;nvarchar(max)&lt;/td&gt;&lt;td&gt;null&lt;/td&gt;&lt;/tr&gt;&lt;tr&gt;&lt;td&gt;&lt;br&gt;&lt;/td&gt;&lt;td&gt;other_environmental_benefit&lt;br&gt;&lt;/td&gt;&lt;td&gt;nvarchar(max)&lt;/td&gt;&lt;td&gt;null&lt;/td&gt;&lt;/tr&gt;&lt;tr&gt;&lt;td&gt;&lt;br&gt;&lt;/td&gt;&lt;td&gt;accessibility_impact_details&lt;br&gt;&lt;/td&gt;&lt;td&gt;nvarchar(max)&lt;/td&gt;&lt;td&gt;null&lt;/td&gt;&lt;/tr&gt;&lt;tr&gt;&lt;td&gt;&lt;br&gt;&lt;/td&gt;&lt;td&gt;accessibility_steps_details&lt;br&gt;&lt;/td&gt;&lt;td&gt;nvarchar(max)&lt;/td&gt;&lt;td&gt;null&lt;/td&gt;&lt;/tr&gt;&lt;tr&gt;&lt;td&gt;&lt;br&gt;&lt;/td&gt;&lt;td&gt;has_evidence&lt;/td&gt;&lt;td&gt;nvarchar(255)&lt;br&gt;&lt;/td&gt;&lt;td&gt;null&lt;/td&gt;&lt;/tr&gt;&lt;tr&gt;&lt;td&gt;&lt;br&gt;&lt;/td&gt;&lt;td&gt;has_market_research&lt;/td&gt;&lt;td&gt;nvarchar(255)&lt;br&gt;&lt;/td&gt;&lt;td&gt;null&lt;/td&gt;&lt;/tr&gt;&lt;tr&gt;&lt;td&gt;&lt;br&gt;&lt;/td&gt;&lt;td&gt;market_research&lt;/td&gt;&lt;td&gt;nvarchar(max)&lt;br&gt;&lt;/td&gt;&lt;td&gt;null&lt;/td&gt;&lt;/tr&gt;&lt;tr&gt;&lt;td&gt;&lt;br&gt;&lt;/td&gt;&lt;td&gt;has_patents&lt;/td&gt;&lt;td&gt;nvarchar(255)&lt;br&gt;&lt;/td&gt;&lt;td&gt;null&lt;/td&gt;&lt;/tr&gt;&lt;tr&gt;&lt;td&gt;&lt;br&gt;&lt;/td&gt;&lt;td&gt;has_other_intellectual&lt;/td&gt;&lt;td&gt;nvarchar(255)&lt;br&gt;&lt;/td&gt;&lt;td&gt;null&lt;/td&gt;&lt;/tr&gt;&lt;tr&gt;&lt;td&gt;&lt;br&gt;&lt;/td&gt;&lt;td&gt;other_intellectual&lt;/td&gt;&lt;td&gt;nvarchar(255)&lt;br&gt;&lt;/td&gt;&lt;td&gt;null&lt;/td&gt;&lt;/tr&gt;&lt;tr&gt;&lt;td&gt;&lt;br&gt;&lt;/td&gt;&lt;td&gt;has_regulation_knowledge&lt;/td&gt;&lt;td&gt;nvarchar(255)&lt;br&gt;&lt;/td&gt;&lt;td&gt;null&lt;/td&gt;&lt;/tr&gt;&lt;tr&gt;&lt;td&gt;&lt;br&gt;&lt;/td&gt;&lt;td&gt;other_regulation_description&lt;/td&gt;&lt;td&gt;nvarchar(255)&lt;br&gt;&lt;/td&gt;&lt;td&gt;null&lt;/td&gt;&lt;/tr&gt;&lt;tr&gt;&lt;td&gt;&lt;br&gt;&lt;/td&gt;&lt;td&gt;has_uk_pathway_knowledge&lt;/td&gt;&lt;td&gt;nvarchar(255)&lt;br&gt;&lt;/td&gt;&lt;td&gt;null&lt;/td&gt;&lt;/tr&gt;&lt;tr&gt;&lt;td&gt;&lt;br&gt;&lt;/td&gt;&lt;td&gt;innovation_pathway_knowledge&lt;/td&gt;&lt;td&gt;nvarchar(255)&lt;br&gt;&lt;/td&gt;&lt;td&gt;null&lt;/td&gt;&lt;/tr&gt;&lt;tr&gt;&lt;td&gt;&lt;br&gt;&lt;/td&gt;&lt;td&gt;potential_pathway&lt;/td&gt;&lt;td&gt;nvarchar(max)&lt;br&gt;&lt;/td&gt;&lt;td&gt;null&lt;/td&gt;&lt;/tr&gt;&lt;tr&gt;&lt;td&gt;&lt;br&gt;&lt;/td&gt;&lt;td&gt;care_pathway&lt;/td&gt;&lt;td&gt;nvarchar(255)&lt;/td&gt;&lt;td&gt;null&lt;/td&gt;&lt;/tr&gt;&lt;tr&gt;&lt;td&gt;&lt;br&gt;&lt;/td&gt;&lt;td&gt;has_tests&lt;/td&gt;&lt;td&gt;nvarchar(255)&lt;br&gt;&lt;/td&gt;&lt;td&gt;null&lt;/td&gt;&lt;/tr&gt;&lt;tr&gt;&lt;td&gt;&lt;br&gt;&lt;/td&gt;&lt;td&gt;has_costs_knowledge&lt;/td&gt;&lt;td&gt;nvarchar(255)&lt;/td&gt;&lt;td&gt;null&lt;/td&gt;&lt;/tr&gt;&lt;tr&gt;&lt;td&gt;&lt;br&gt;&lt;/td&gt;&lt;td&gt;cost_description&lt;br&gt;&lt;/td&gt;&lt;td&gt;nvarchar(max)&lt;/td&gt;&lt;td&gt;null&lt;/td&gt;&lt;/tr&gt;&lt;tr&gt;&lt;td&gt;&lt;br&gt;&lt;/td&gt;&lt;td&gt;patients_range&lt;/td&gt;&lt;td&gt;nvarchar(255)&lt;/td&gt;&lt;td&gt;null&lt;/td&gt;&lt;/tr&gt;&lt;tr&gt;&lt;td&gt;&lt;br&gt;&lt;/td&gt;&lt;td&gt;sell_expectations&lt;br&gt;&lt;/td&gt;&lt;td&gt;nvarchar(max)&lt;br&gt;&lt;/td&gt;&lt;td&gt;null&lt;/td&gt;&lt;/tr&gt;&lt;tr&gt;&lt;td&gt;&lt;br&gt;&lt;/td&gt;&lt;td&gt;usage_expectations&lt;br&gt;&lt;/td&gt;&lt;td&gt;nvarchar(max)&lt;br&gt;&lt;/td&gt;&lt;td&gt;null&lt;/td&gt;&lt;/tr&gt;&lt;tr&gt;&lt;td&gt;&lt;br&gt;&lt;/td&gt;&lt;td&gt;has_cost_saving_knowledge&lt;/td&gt;&lt;td&gt;nvarchar(255)&lt;br&gt;&lt;/td&gt;&lt;td&gt;null&lt;/td&gt;&lt;/tr&gt;&lt;tr&gt;&lt;td&gt;&lt;br&gt;&lt;/td&gt;&lt;td&gt;has_cost_care_knowledge&lt;/td&gt;&lt;td&gt;nvarchar(255)&lt;br&gt;&lt;/td&gt;&lt;td&gt;null&lt;/td&gt;&lt;/tr&gt;&lt;tr&gt;&lt;td&gt;&lt;br&gt;&lt;/td&gt;&lt;td&gt;cost_comparison&lt;/td&gt;&lt;td&gt;nvarchar(255)&lt;/td&gt;&lt;td&gt;null&lt;/td&gt;&lt;/tr&gt;&lt;tr&gt;&lt;td&gt;&lt;br&gt;&lt;/td&gt;&lt;td&gt;has_revenue_model&lt;/td&gt;&lt;td&gt;nvarchar(255)&lt;br&gt;&lt;/td&gt;&lt;td&gt;null&lt;/td&gt;&lt;/tr&gt;&lt;tr&gt;&lt;td&gt;&lt;br&gt;&lt;/td&gt;&lt;td&gt;other_revenue_description&lt;br&gt;&lt;/td&gt;&lt;td&gt;nvarchar(255)&lt;/td&gt;&lt;td&gt;null&lt;/td&gt;&lt;/tr&gt;&lt;tr&gt;&lt;td&gt;&lt;br&gt;&lt;/td&gt;&lt;td&gt;paying_organisations&lt;/td&gt;&lt;td&gt;nvarchar(max)&lt;br&gt;&lt;/td&gt;&lt;td&gt;null&lt;/td&gt;&lt;/tr&gt;&lt;tr&gt;&lt;td&gt;&lt;br&gt;&lt;/td&gt;&lt;td&gt;benefitting_organisations&lt;/td&gt;&lt;td&gt;nvarchar(max)&lt;br&gt;&lt;/td&gt;&lt;td&gt;null&lt;/td&gt;&lt;/tr&gt;&lt;tr&gt;&lt;td&gt;&lt;br&gt;&lt;/td&gt;&lt;td&gt;has_funding&lt;/td&gt;&lt;td&gt;nvarchar(255)&lt;br&gt;&lt;/td&gt;&lt;td&gt;null&lt;/td&gt;&lt;/tr&gt;&lt;tr&gt;&lt;td&gt;&lt;br&gt;&lt;/td&gt;&lt;td&gt;funding_description&lt;/td&gt;&lt;td&gt;nvarchar(max)&lt;br&gt;&lt;/td&gt;&lt;td&gt;null&lt;/td&gt;&lt;/tr&gt;&lt;tr&gt;&lt;td&gt;&lt;br&gt;&lt;/td&gt;&lt;td&gt;has_deploy_plan&lt;/td&gt;&lt;td&gt;nvarchar(255)&lt;br&gt;&lt;/td&gt;&lt;td&gt;null&lt;/td&gt;&lt;/tr&gt;&lt;tr&gt;&lt;td&gt;&lt;br&gt;&lt;/td&gt;&lt;td&gt;is_deployed&lt;/td&gt;&lt;td&gt;nvarchar(255)&lt;br&gt;&lt;/td&gt;&lt;td&gt;null&lt;/td&gt;&lt;/tr&gt;&lt;tr&gt;&lt;td&gt;&lt;br&gt;&lt;/td&gt;&lt;td&gt;has_resources_to_scale&lt;/td&gt;&lt;td&gt;nvarchar(255)&lt;br&gt;&lt;/td&gt;&lt;td&gt;null&lt;/td&gt;&lt;/tr&gt;&lt;tr&gt;&lt;td&gt;&lt;br&gt;&lt;/td&gt;&lt;td&gt;archive_reason&lt;/td&gt;&lt;td&gt;nvarchar(max)&lt;br&gt;&lt;/td&gt;&lt;td&gt;null&lt;/td&gt;&lt;/tr&gt;&lt;tr&gt;&lt;td&gt;&lt;br&gt;&lt;/td&gt;&lt;td&gt;temporal *&lt;/td&gt;&lt;td&gt;&lt;br&gt;&lt;/td&gt;&lt;td&gt;&lt;br&gt;&lt;/td&gt;&lt;/tr&gt;&lt;tr&gt;&lt;td&gt;&lt;br&gt;&lt;/td&gt;&lt;td&gt;audit *&lt;/td&gt;&lt;td&gt;&lt;br&gt;&lt;/td&gt;&lt;td&gt;&lt;br&gt;&lt;/td&gt;&lt;/tr&gt;&lt;/tbody&gt;&lt;/table&gt;" style="fontFamily=Lucida Console;fontSize=11;align=left;overflow=fill;strokeColor=none;labelBorderColor=#999999;html=1;" parent="1" vertex="1">
          <mxGeometry x="347.5" y="80" width="385" height="1130" as="geometry" />
        </mxCell>
        <mxCell id="bM6USqFYMZth9pwpu3Yk-6" value="&lt;div style=&quot;box-sizing: border-box ; width: 100% ; line-height: 30px ; background: rgba(125 , 125 , 125 , 0.4) ; padding: 0px 5px&quot;&gt;dbo.innovation_action&lt;/div&gt;&lt;table style=&quot;width: 100% ; padding: 0px 2px&quot;&gt;&lt;tbody&gt;&lt;tr&gt;&lt;td&gt;PK&lt;/td&gt;&lt;td&gt;id&lt;/td&gt;&lt;td&gt;ui&lt;/td&gt;&lt;td&gt;&lt;/td&gt;&lt;/tr&gt;&lt;tr&gt;&lt;td&gt;FK&lt;/td&gt;&lt;td&gt;innovation_section_id&lt;/td&gt;&lt;td&gt;ui&lt;/td&gt;&lt;td&gt;&lt;/td&gt;&lt;/tr&gt;&lt;tr&gt;&lt;td&gt;FK&lt;/td&gt;&lt;td&gt;innovation_support_id&lt;/td&gt;&lt;td&gt;ui&lt;/td&gt;&lt;td&gt;&lt;br&gt;&lt;/td&gt;&lt;/tr&gt;&lt;tr&gt;&lt;td&gt;&lt;br&gt;&lt;/td&gt;&lt;td&gt;display_id&lt;/td&gt;&lt;td&gt;nvarchar(5)&lt;/td&gt;&lt;td&gt;null&lt;/td&gt;&lt;/tr&gt;&lt;tr&gt;&lt;td&gt;&lt;br&gt;&lt;/td&gt;&lt;td&gt;status&lt;/td&gt;&lt;td&gt;nvarchar(255)&lt;/td&gt;&lt;td&gt;&lt;br&gt;&lt;/td&gt;&lt;/tr&gt;&lt;tr&gt;&lt;td&gt;&lt;br&gt;&lt;/td&gt;&lt;td&gt;description&lt;/td&gt;&lt;td&gt;nvarchar(500)&lt;/td&gt;&lt;td&gt;&lt;br&gt;&lt;/td&gt;&lt;/tr&gt;&lt;tr&gt;&lt;td&gt;&lt;br&gt;&lt;/td&gt;&lt;td&gt;temporal *&lt;/td&gt;&lt;td&gt;&lt;br&gt;&lt;/td&gt;&lt;td&gt;&lt;br&gt;&lt;/td&gt;&lt;/tr&gt;&lt;tr&gt;&lt;td&gt;&lt;/td&gt;&lt;td&gt;audit *&lt;/td&gt;&lt;td&gt;&lt;/td&gt;&lt;td&gt;&lt;/td&gt;&lt;/tr&gt;&lt;/tbody&gt;&lt;/table&gt;" style="fontFamily=Lucida Console;fontSize=11;align=left;overflow=fill;strokeColor=none;labelBorderColor=#999999;html=1;" parent="1" vertex="1">
          <mxGeometry x="2360" y="120" width="320" height="170" as="geometry" />
        </mxCell>
        <mxCell id="bM6USqFYMZth9pwpu3Yk-7" value="&lt;div style=&quot;box-sizing: border-box ; width: 100% ; line-height: 30px ; background: rgba(125 , 125 , 125 , 0.4) ; padding: 0px 5px&quot;&gt;dbo.innovation_area&lt;/div&gt;&lt;table style=&quot;width: 100% ; padding: 0px 2px&quot;&gt;&lt;tbody&gt;&lt;tr&gt;&lt;td&gt;PK&lt;/td&gt;&lt;td&gt;type&lt;/td&gt;&lt;td&gt;nvarchar(255)&lt;/td&gt;&lt;td&gt;&lt;/td&gt;&lt;/tr&gt;&lt;tr&gt;&lt;td&gt;PK FK&lt;/td&gt;&lt;td&gt;innovation_id&lt;/td&gt;&lt;td&gt;ui&lt;/td&gt;&lt;td&gt;&lt;/td&gt;&lt;/tr&gt;&lt;tr&gt;&lt;td&gt;&lt;br&gt;&lt;/td&gt;&lt;td&gt;temporal *&lt;/td&gt;&lt;td&gt;&lt;br&gt;&lt;/td&gt;&lt;td&gt;&lt;br&gt;&lt;/td&gt;&lt;/tr&gt;&lt;tr&gt;&lt;td&gt;&lt;/td&gt;&lt;td&gt;audit *&lt;/td&gt;&lt;td&gt;&lt;/td&gt;&lt;td&gt;&lt;/td&gt;&lt;/tr&gt;&lt;/tbody&gt;&lt;/table&gt;" style="fontFamily=Lucida Console;fontSize=11;align=left;overflow=fill;strokeColor=none;labelBorderColor=#999999;html=1;" parent="1" vertex="1">
          <mxGeometry x="10" y="190" width="310" height="100" as="geometry" />
        </mxCell>
        <mxCell id="bM6USqFYMZth9pwpu3Yk-8" value="&lt;div style=&quot;box-sizing: border-box ; width: 100% ; line-height: 30px ; background: rgba(125 , 125 , 125 , 0.4) ; padding: 0px 5px&quot;&gt;dbo.innovation_assessment&lt;/div&gt;&lt;table style=&quot;width: 100% ; padding: 0px 2px&quot;&gt;&lt;tbody&gt;&lt;tr&gt;&lt;td&gt;PK&lt;/td&gt;&lt;td&gt;id&lt;/td&gt;&lt;td&gt;ui&lt;/td&gt;&lt;td&gt;&lt;/td&gt;&lt;/tr&gt;&lt;tr&gt;&lt;td&gt;FK&lt;/td&gt;&lt;td&gt;innovation_id&lt;/td&gt;&lt;td&gt;ui&lt;/td&gt;&lt;td&gt;&lt;/td&gt;&lt;/tr&gt;&lt;tr&gt;&lt;td&gt;FK&lt;/td&gt;&lt;td&gt;assign_to_id&lt;/td&gt;&lt;td&gt;nvarchar(255)&lt;br&gt;&lt;/td&gt;&lt;td&gt;&lt;br&gt;&lt;/td&gt;&lt;/tr&gt;&lt;tr&gt;&lt;td&gt;&lt;br&gt;&lt;/td&gt;&lt;td&gt;summary&lt;/td&gt;&lt;td&gt;nvarchar(max)&lt;/td&gt;&lt;td&gt;null&lt;/td&gt;&lt;/tr&gt;&lt;tr&gt;&lt;td&gt;&lt;br&gt;&lt;/td&gt;&lt;td&gt;description&lt;/td&gt;&lt;td&gt;nvarchar(max)&lt;br&gt;&lt;/td&gt;&lt;td&gt;null&lt;/td&gt;&lt;/tr&gt;&lt;tr&gt;&lt;td&gt;&lt;br&gt;&lt;/td&gt;&lt;td&gt;maturity_level&lt;/td&gt;&lt;td&gt;nvarchar(20)&lt;/td&gt;&lt;td&gt;null&lt;/td&gt;&lt;/tr&gt;&lt;tr&gt;&lt;td&gt;&lt;br&gt;&lt;/td&gt;&lt;td&gt;maturity_level_comment&lt;/td&gt;&lt;td&gt;nvarchar(200)&lt;/td&gt;&lt;td&gt;null&lt;/td&gt;&lt;/tr&gt;&lt;tr&gt;&lt;td&gt;&lt;br&gt;&lt;/td&gt;&lt;td&gt;has_regulatory_approvals&lt;/td&gt;&lt;td&gt;nvarchar(20)&lt;br&gt;&lt;/td&gt;&lt;td&gt;null&lt;/td&gt;&lt;/tr&gt;&lt;tr&gt;&lt;td&gt;&lt;br&gt;&lt;/td&gt;&lt;td&gt;has_regulatory_approvals_comment&lt;br&gt;&lt;/td&gt;&lt;td&gt;nvarchar(200)&lt;br&gt;&lt;/td&gt;&lt;td&gt;null&lt;/td&gt;&lt;/tr&gt;&lt;tr&gt;&lt;td&gt;&lt;br&gt;&lt;/td&gt;&lt;td&gt;has_evidence&lt;/td&gt;&lt;td&gt;nvarchar(20)&lt;br&gt;&lt;/td&gt;&lt;td&gt;null&lt;/td&gt;&lt;/tr&gt;&lt;tr&gt;&lt;td&gt;&lt;br&gt;&lt;/td&gt;&lt;td&gt;has_evidence_comment&lt;/td&gt;&lt;td&gt;nvarchar(200)&lt;br&gt;&lt;/td&gt;&lt;td&gt;null&lt;/td&gt;&lt;/tr&gt;&lt;tr&gt;&lt;td&gt;&lt;br&gt;&lt;/td&gt;&lt;td&gt;has_validation&lt;/td&gt;&lt;td&gt;nvarchar(20)&lt;br&gt;&lt;/td&gt;&lt;td&gt;null&lt;/td&gt;&lt;/tr&gt;&lt;tr&gt;&lt;td&gt;&lt;br&gt;&lt;/td&gt;&lt;td&gt;has_validation_comment&lt;/td&gt;&lt;td&gt;nvarchar(200)&lt;br&gt;&lt;/td&gt;&lt;td&gt;null&lt;/td&gt;&lt;/tr&gt;&lt;tr&gt;&lt;td&gt;&lt;br&gt;&lt;/td&gt;&lt;td&gt;has_proposition&lt;/td&gt;&lt;td&gt;nvarchar(20)&lt;br&gt;&lt;/td&gt;&lt;td&gt;null&lt;/td&gt;&lt;/tr&gt;&lt;tr&gt;&lt;td&gt;&lt;br&gt;&lt;/td&gt;&lt;td&gt;has_proposition_comment&lt;/td&gt;&lt;td&gt;nvarchar(200)&lt;br&gt;&lt;/td&gt;&lt;td&gt;null&lt;/td&gt;&lt;/tr&gt;&lt;tr&gt;&lt;td&gt;&lt;br&gt;&lt;/td&gt;&lt;td&gt;has_competition_knowledge&lt;/td&gt;&lt;td&gt;nvarchar(20)&lt;br&gt;&lt;/td&gt;&lt;td&gt;null&lt;/td&gt;&lt;/tr&gt;&lt;tr&gt;&lt;td&gt;&lt;br&gt;&lt;/td&gt;&lt;td&gt;has_competition_knowledge_comment&lt;/td&gt;&lt;td&gt;nvarchar(200)&lt;br&gt;&lt;/td&gt;&lt;td&gt;null&lt;/td&gt;&lt;/tr&gt;&lt;tr&gt;&lt;td&gt;&lt;br&gt;&lt;/td&gt;&lt;td&gt;has_implementation_plan&lt;/td&gt;&lt;td&gt;nvarchar(20)&lt;br&gt;&lt;/td&gt;&lt;td&gt;null&lt;/td&gt;&lt;/tr&gt;&lt;tr&gt;&lt;td&gt;&lt;br&gt;&lt;/td&gt;&lt;td&gt;has_implementation_plan_comment&lt;/td&gt;&lt;td&gt;nvarchar(200)&lt;br&gt;&lt;/td&gt;&lt;td&gt;null&lt;/td&gt;&lt;/tr&gt;&lt;tr&gt;&lt;td&gt;&lt;br&gt;&lt;/td&gt;&lt;td&gt;has_scale_resource&lt;/td&gt;&lt;td&gt;nvarchar(20)&lt;br&gt;&lt;/td&gt;&lt;td&gt;null&lt;/td&gt;&lt;/tr&gt;&lt;tr&gt;&lt;td&gt;&lt;br&gt;&lt;/td&gt;&lt;td&gt;has_scale_resource_comment&lt;/td&gt;&lt;td&gt;nvarchar(200)&lt;br&gt;&lt;/td&gt;&lt;td&gt;null&lt;/td&gt;&lt;/tr&gt;&lt;tr&gt;&lt;td&gt;&lt;br&gt;&lt;/td&gt;&lt;td&gt;finished_at&lt;/td&gt;&lt;td&gt;datetime2&lt;/td&gt;&lt;td&gt;null&lt;/td&gt;&lt;/tr&gt;&lt;tr&gt;&lt;td&gt;&lt;br&gt;&lt;/td&gt;&lt;td&gt;exempted_reason&lt;/td&gt;&lt;td&gt;nvarchar(100)&lt;/td&gt;&lt;td&gt;null&lt;span style=&quot;white-space: pre;&quot;&gt;&#x9;&lt;/span&gt;&lt;/td&gt;&lt;/tr&gt;&lt;tr&gt;&lt;td&gt;&lt;br&gt;&lt;/td&gt;&lt;td&gt;exempted_message&lt;/td&gt;&lt;td&gt;nvarchar(max)&lt;/td&gt;&lt;td&gt;null&lt;/td&gt;&lt;/tr&gt;&lt;tr&gt;&lt;td&gt;&lt;br&gt;&lt;/td&gt;&lt;td&gt;exempted_at&lt;/td&gt;&lt;td&gt;datetime2&lt;/td&gt;&lt;td&gt;null&lt;/td&gt;&lt;/tr&gt;&lt;tr&gt;&lt;td&gt;&lt;br&gt;&lt;/td&gt;&lt;td&gt;temporal *&lt;/td&gt;&lt;td&gt;&lt;br&gt;&lt;/td&gt;&lt;td&gt;&lt;br&gt;&lt;/td&gt;&lt;/tr&gt;&lt;tr&gt;&lt;td&gt;&lt;/td&gt;&lt;td&gt;audit *&lt;/td&gt;&lt;td&gt;&lt;/td&gt;&lt;td&gt;&lt;/td&gt;&lt;/tr&gt;&lt;/tbody&gt;&lt;/table&gt;" style="fontFamily=Lucida Console;fontSize=11;align=left;overflow=fill;strokeColor=none;labelBorderColor=#999999;html=1;" parent="1" vertex="1">
          <mxGeometry x="760" y="1040" width="390" height="500" as="geometry" />
        </mxCell>
        <mxCell id="bM6USqFYMZth9pwpu3Yk-10" value="&lt;div style=&quot;box-sizing: border-box ; width: 100% ; line-height: 30px ; background: rgba(125 , 125 , 125 , 0.4) ; padding: 0px 5px&quot;&gt;dbo.innovation_care_setting&lt;/div&gt;&lt;table style=&quot;width: 100% ; padding: 0px 2px&quot;&gt;&lt;tbody&gt;&lt;tr&gt;&lt;td&gt;PK&lt;/td&gt;&lt;td&gt;type&lt;/td&gt;&lt;td&gt;nvarchar(255)&lt;/td&gt;&lt;td&gt;&lt;/td&gt;&lt;/tr&gt;&lt;tr&gt;&lt;td&gt;PK FK&lt;/td&gt;&lt;td&gt;innovation_id&lt;/td&gt;&lt;td&gt;ui&lt;/td&gt;&lt;td&gt;&lt;/td&gt;&lt;/tr&gt;&lt;tr&gt;&lt;td&gt;&lt;br&gt;&lt;/td&gt;&lt;td&gt;temporal *&lt;/td&gt;&lt;td&gt;&lt;br&gt;&lt;/td&gt;&lt;td&gt;&lt;br&gt;&lt;/td&gt;&lt;/tr&gt;&lt;tr&gt;&lt;td&gt;&lt;/td&gt;&lt;td&gt;audit *&lt;/td&gt;&lt;td&gt;&lt;/td&gt;&lt;td&gt;&lt;/td&gt;&lt;/tr&gt;&lt;/tbody&gt;&lt;/table&gt;" style="fontFamily=Lucida Console;fontSize=11;align=left;overflow=fill;strokeColor=none;labelBorderColor=#999999;html=1;" parent="1" vertex="1">
          <mxGeometry x="10" y="410" width="310" height="100" as="geometry" />
        </mxCell>
        <mxCell id="bM6USqFYMZth9pwpu3Yk-11" value="&lt;div style=&quot;box-sizing: border-box ; width: 100% ; line-height: 30px ; background: rgba(125 , 125 , 125 , 0.4) ; padding: 0px 5px&quot;&gt;dbo.innovation_category&lt;/div&gt;&lt;table style=&quot;width: 100% ; padding: 0px 2px&quot;&gt;&lt;tbody&gt;&lt;tr&gt;&lt;td&gt;PK&lt;/td&gt;&lt;td&gt;type&lt;/td&gt;&lt;td&gt;nvarchar(255)&lt;/td&gt;&lt;td&gt;&lt;/td&gt;&lt;/tr&gt;&lt;tr&gt;&lt;td&gt;PK FK&lt;/td&gt;&lt;td&gt;innovation_id&lt;/td&gt;&lt;td&gt;ui&lt;/td&gt;&lt;td&gt;&lt;/td&gt;&lt;/tr&gt;&lt;tr&gt;&lt;td&gt;&lt;br&gt;&lt;/td&gt;&lt;td&gt;temporal *&lt;/td&gt;&lt;td&gt;datetime2&lt;/td&gt;&lt;td&gt;&lt;br&gt;&lt;/td&gt;&lt;/tr&gt;&lt;tr&gt;&lt;td&gt;&lt;/td&gt;&lt;td&gt;audit *&lt;/td&gt;&lt;td&gt;&lt;/td&gt;&lt;td&gt;&lt;/td&gt;&lt;/tr&gt;&lt;/tbody&gt;&lt;/table&gt;" style="fontFamily=Lucida Console;fontSize=11;align=left;overflow=fill;strokeColor=none;labelBorderColor=#999999;html=1;" parent="1" vertex="1">
          <mxGeometry x="10" y="80" width="310" height="100" as="geometry" />
        </mxCell>
        <mxCell id="bM6USqFYMZth9pwpu3Yk-13" value="&lt;div style=&quot;box-sizing: border-box ; width: 100% ; line-height: 30px ; background: rgba(125 , 125 , 125 , 0.4) ; padding: 0px 5px&quot;&gt;dbo.innovation_clinical_area&lt;/div&gt;&lt;table style=&quot;width: 100% ; padding: 0px 2px&quot;&gt;&lt;tbody&gt;&lt;tr&gt;&lt;td&gt;PK&lt;/td&gt;&lt;td&gt;type&lt;/td&gt;&lt;td&gt;nvarchar(255)&lt;/td&gt;&lt;td&gt;&lt;/td&gt;&lt;/tr&gt;&lt;tr&gt;&lt;td&gt;PK FK&lt;/td&gt;&lt;td&gt;innovation_id&lt;/td&gt;&lt;td&gt;ui&lt;/td&gt;&lt;td&gt;&lt;/td&gt;&lt;/tr&gt;&lt;tr&gt;&lt;td&gt;&lt;br&gt;&lt;/td&gt;&lt;td&gt;temporal *&lt;/td&gt;&lt;td&gt;datetime2&lt;/td&gt;&lt;td&gt;&lt;br&gt;&lt;/td&gt;&lt;/tr&gt;&lt;tr&gt;&lt;td&gt;&lt;/td&gt;&lt;td&gt;audit *&lt;/td&gt;&lt;td&gt;&lt;/td&gt;&lt;td&gt;&lt;/td&gt;&lt;/tr&gt;&lt;/tbody&gt;&lt;/table&gt;" style="fontFamily=Lucida Console;fontSize=11;align=left;overflow=fill;strokeColor=none;labelBorderColor=#999999;html=1;" parent="1" vertex="1">
          <mxGeometry x="10" y="300" width="310" height="100" as="geometry" />
        </mxCell>
        <mxCell id="bM6USqFYMZth9pwpu3Yk-14" value="&lt;div style=&quot;box-sizing: border-box ; width: 100% ; line-height: 30px ; background: rgba(125 , 125 , 125 , 0.4) ; padding: 0px 5px&quot;&gt;dbo.innovation_deployment_plan&lt;/div&gt;&lt;table style=&quot;width: 100% ; padding: 0px 2px&quot;&gt;&lt;tbody&gt;&lt;tr&gt;&lt;td&gt;PK&lt;/td&gt;&lt;td&gt;id&lt;/td&gt;&lt;td&gt;ui&lt;/td&gt;&lt;td&gt;&lt;br&gt;&lt;/td&gt;&lt;/tr&gt;&lt;tr&gt;&lt;td&gt;FK&lt;/td&gt;&lt;td&gt;innovation_id&lt;/td&gt;&lt;td&gt;ui&lt;/td&gt;&lt;td&gt;&lt;/td&gt;&lt;/tr&gt;&lt;tr&gt;&lt;td&gt;&lt;br&gt;&lt;/td&gt;&lt;td&gt;name&lt;/td&gt;&lt;td&gt;nvarchar(255)&lt;/td&gt;&lt;td&gt;&lt;br&gt;&lt;/td&gt;&lt;/tr&gt;&lt;tr&gt;&lt;td&gt;&lt;br&gt;&lt;/td&gt;&lt;td&gt;commercial_basis&lt;/td&gt;&lt;td&gt;nvarchar(500)&lt;/td&gt;&lt;td&gt;null&lt;/td&gt;&lt;/tr&gt;&lt;tr&gt;&lt;td&gt;&lt;br&gt;&lt;/td&gt;&lt;td&gt;org_deployment_affect&lt;/td&gt;&lt;td&gt;nvarchar(500)&lt;/td&gt;&lt;td&gt;null&lt;/td&gt;&lt;/tr&gt;&lt;tr&gt;&lt;td&gt;&lt;br&gt;&lt;/td&gt;&lt;td&gt;temporal *&lt;/td&gt;&lt;td&gt;datetime2&lt;/td&gt;&lt;td&gt;&lt;br&gt;&lt;/td&gt;&lt;/tr&gt;&lt;tr&gt;&lt;td&gt;&lt;/td&gt;&lt;td&gt;audit *&lt;/td&gt;&lt;td&gt;&lt;/td&gt;&lt;td&gt;&lt;/td&gt;&lt;/tr&gt;&lt;/tbody&gt;&lt;/table&gt;" style="fontFamily=Lucida Console;fontSize=11;align=left;overflow=fill;strokeColor=none;labelBorderColor=#999999;html=1;" parent="1" vertex="1">
          <mxGeometry x="10" y="1375" width="310" height="160" as="geometry" />
        </mxCell>
        <mxCell id="bM6USqFYMZth9pwpu3Yk-15" value="&lt;div style=&quot;box-sizing: border-box ; width: 100% ; line-height: 30px ; background: rgba(125 , 125 , 125 , 0.4) ; padding: 0px 5px&quot;&gt;dbo.innovation_environmental_benefit&lt;/div&gt;&lt;table style=&quot;width: 100% ; padding: 0px 2px&quot;&gt;&lt;tbody&gt;&lt;tr&gt;&lt;td&gt;PK&lt;/td&gt;&lt;td&gt;type&lt;/td&gt;&lt;td&gt;nvarchar(255)&lt;/td&gt;&lt;td&gt;&lt;/td&gt;&lt;/tr&gt;&lt;tr&gt;&lt;td&gt;PK FK&lt;/td&gt;&lt;td&gt;innovation_id&lt;/td&gt;&lt;td&gt;ui&lt;/td&gt;&lt;td&gt;&lt;/td&gt;&lt;/tr&gt;&lt;tr&gt;&lt;td&gt;&lt;br&gt;&lt;/td&gt;&lt;td&gt;temporal *&lt;/td&gt;&lt;td&gt;datetime2&lt;/td&gt;&lt;td&gt;&lt;br&gt;&lt;/td&gt;&lt;/tr&gt;&lt;tr&gt;&lt;td&gt;&lt;/td&gt;&lt;td&gt;audit *&lt;/td&gt;&lt;td&gt;&lt;/td&gt;&lt;td&gt;&lt;/td&gt;&lt;/tr&gt;&lt;/tbody&gt;&lt;/table&gt;" style="fontFamily=Lucida Console;fontSize=11;align=left;overflow=fill;strokeColor=none;labelBorderColor=#999999;html=1;" parent="1" vertex="1">
          <mxGeometry x="10" y="850" width="310" height="100" as="geometry" />
        </mxCell>
        <mxCell id="bM6USqFYMZth9pwpu3Yk-16" value="&lt;div style=&quot;box-sizing: border-box ; width: 100% ; line-height: 30px ; background: rgba(125 , 125 , 125 , 0.4) ; padding: 0px 5px&quot;&gt;dbo.innovation_evidence&lt;/div&gt;&lt;table style=&quot;width: 100% ; padding: 0px 2px&quot;&gt;&lt;tbody&gt;&lt;tr&gt;&lt;td&gt;PK&lt;/td&gt;&lt;td&gt;id&lt;/td&gt;&lt;td&gt;ui&lt;/td&gt;&lt;td&gt;&lt;br&gt;&lt;/td&gt;&lt;/tr&gt;&lt;tr&gt;&lt;td&gt;FK&lt;/td&gt;&lt;td&gt;innovation_id&lt;/td&gt;&lt;td&gt;ui&lt;/td&gt;&lt;td&gt;&lt;/td&gt;&lt;/tr&gt;&lt;tr&gt;&lt;td&gt;&lt;br&gt;&lt;/td&gt;&lt;td&gt;evidence_type&lt;/td&gt;&lt;td&gt;nvarchar(255)&lt;/td&gt;&lt;td&gt;null&lt;/td&gt;&lt;/tr&gt;&lt;tr&gt;&lt;td&gt;&lt;br&gt;&lt;/td&gt;&lt;td&gt;clinical_evidence_type&lt;/td&gt;&lt;td&gt;nvarchar(255)&lt;/td&gt;&lt;td&gt;null&lt;/td&gt;&lt;/tr&gt;&lt;tr&gt;&lt;td&gt;&lt;br&gt;&lt;/td&gt;&lt;td&gt;summary&lt;/td&gt;&lt;td&gt;nvarchar(max)&lt;/td&gt;&lt;td&gt;null&lt;/td&gt;&lt;/tr&gt;&lt;tr&gt;&lt;td&gt;&lt;br&gt;&lt;/td&gt;&lt;td&gt;description&lt;/td&gt;&lt;td&gt;nvarchar(max)&lt;/td&gt;&lt;td&gt;null&lt;/td&gt;&lt;/tr&gt;&lt;tr&gt;&lt;td&gt;&lt;br&gt;&lt;/td&gt;&lt;td&gt;temporal *&lt;/td&gt;&lt;td&gt;datetime2&lt;/td&gt;&lt;td&gt;&lt;br&gt;&lt;/td&gt;&lt;/tr&gt;&lt;tr&gt;&lt;td&gt;&lt;/td&gt;&lt;td&gt;audit *&lt;/td&gt;&lt;td&gt;&lt;/td&gt;&lt;td&gt;&lt;/td&gt;&lt;/tr&gt;&lt;/tbody&gt;&lt;/table&gt;" style="fontFamily=Lucida Console;fontSize=11;align=left;overflow=fill;strokeColor=none;labelBorderColor=#999999;html=1;" parent="1" vertex="1">
          <mxGeometry x="760" y="800" width="320" height="170" as="geometry" />
        </mxCell>
        <mxCell id="bM6USqFYMZth9pwpu3Yk-17" value="&lt;div style=&quot;box-sizing: border-box ; width: 100% ; line-height: 30px ; background: rgba(125 , 125 , 125 , 0.4) ; padding: 0px 5px&quot;&gt;dbo.innovation_file_legacy&lt;/div&gt;&lt;table style=&quot;width: 100% ; padding: 0px 2px&quot;&gt;&lt;tbody&gt;&lt;tr&gt;&lt;td&gt;PK&lt;/td&gt;&lt;td&gt;id&lt;/td&gt;&lt;td&gt;ui&lt;/td&gt;&lt;td&gt;&lt;br&gt;&lt;/td&gt;&lt;/tr&gt;&lt;tr&gt;&lt;td&gt;FK&lt;/td&gt;&lt;td&gt;innovation_id&lt;/td&gt;&lt;td&gt;ui&lt;/td&gt;&lt;td&gt;&lt;/td&gt;&lt;/tr&gt;&lt;tr&gt;&lt;td&gt;&lt;br&gt;&lt;/td&gt;&lt;td&gt;context&lt;/td&gt;&lt;td&gt;nvarchar(100)&lt;/td&gt;&lt;td&gt;null&lt;/td&gt;&lt;/tr&gt;&lt;tr&gt;&lt;td&gt;&lt;br&gt;&lt;/td&gt;&lt;td&gt;display_file_name&lt;/td&gt;&lt;td&gt;nvarchar(100)&lt;/td&gt;&lt;td&gt;&lt;br&gt;&lt;/td&gt;&lt;/tr&gt;&lt;tr&gt;&lt;td&gt;&lt;/td&gt;&lt;td&gt;audit *&lt;/td&gt;&lt;td&gt;&lt;/td&gt;&lt;td&gt;&lt;/td&gt;&lt;/tr&gt;&lt;/tbody&gt;&lt;/table&gt;" style="fontFamily=Lucida Console;fontSize=11;align=left;overflow=fill;strokeColor=none;labelBorderColor=#999999;html=1;" parent="1" vertex="1">
          <mxGeometry x="810" y="-255" width="280" height="120" as="geometry" />
        </mxCell>
        <mxCell id="bM6USqFYMZth9pwpu3Yk-18" value="&lt;div style=&quot;box-sizing: border-box ; width: 100% ; line-height: 30px ; background: rgba(125 , 125 , 125 , 0.4) ; padding: 0px 5px&quot;&gt;dbo.innovation_evidence_file&lt;/div&gt;&lt;table style=&quot;width: 100% ; padding: 0px 2px&quot;&gt;&lt;tbody&gt;&lt;tr&gt;&lt;td&gt;PK FK&lt;/td&gt;&lt;td&gt;innovation_evidence_id&lt;/td&gt;&lt;td&gt;ui&lt;/td&gt;&lt;td&gt;&lt;br&gt;&lt;/td&gt;&lt;/tr&gt;&lt;tr&gt;&lt;td&gt;PK FK&lt;/td&gt;&lt;td&gt;innovation_file_id&lt;/td&gt;&lt;td&gt;ui&lt;/td&gt;&lt;td&gt;&lt;/td&gt;&lt;/tr&gt;&lt;/tbody&gt;&lt;/table&gt;" style="fontFamily=Lucida Console;fontSize=11;align=left;overflow=fill;strokeColor=none;labelBorderColor=#999999;html=1;" parent="1" vertex="1">
          <mxGeometry x="1090" y="800" width="300" height="70" as="geometry" />
        </mxCell>
        <mxCell id="bM6USqFYMZth9pwpu3Yk-19" value="&lt;div style=&quot;box-sizing: border-box ; width: 100% ; line-height: 30px ; background: rgba(125 , 125 , 125 , 0.4) ; padding: 0px 5px&quot;&gt;dbo.innovation_general_benefit&lt;/div&gt;&lt;table style=&quot;width: 100% ; padding: 0px 2px&quot;&gt;&lt;tbody&gt;&lt;tr&gt;&lt;td&gt;PK&lt;/td&gt;&lt;td&gt;type&lt;/td&gt;&lt;td&gt;nvarchar(255)&lt;/td&gt;&lt;td&gt;&lt;/td&gt;&lt;/tr&gt;&lt;tr&gt;&lt;td&gt;PK FK&lt;/td&gt;&lt;td&gt;innovation_id&lt;/td&gt;&lt;td&gt;ui&lt;/td&gt;&lt;td&gt;&lt;/td&gt;&lt;/tr&gt;&lt;tr&gt;&lt;td&gt;&lt;br&gt;&lt;/td&gt;&lt;td&gt;temporal *&lt;/td&gt;&lt;td&gt;datetime2&lt;/td&gt;&lt;td&gt;&lt;br&gt;&lt;/td&gt;&lt;/tr&gt;&lt;tr&gt;&lt;td&gt;&lt;/td&gt;&lt;td&gt;audit *&lt;/td&gt;&lt;td&gt;&lt;/td&gt;&lt;td&gt;&lt;/td&gt;&lt;/tr&gt;&lt;/tbody&gt;&lt;/table&gt;" style="fontFamily=Lucida Console;fontSize=11;align=left;overflow=fill;strokeColor=none;labelBorderColor=#999999;html=1;" parent="1" vertex="1">
          <mxGeometry x="10" y="740" width="310" height="100" as="geometry" />
        </mxCell>
        <mxCell id="bM6USqFYMZth9pwpu3Yk-20" value="&lt;div style=&quot;box-sizing: border-box ; width: 100% ; line-height: 30px ; background: rgba(125 , 125 , 125 , 0.4) ; padding: 0px 5px&quot;&gt;dbo.innovation_revenue&lt;/div&gt;&lt;table style=&quot;width: 100% ; padding: 0px 2px&quot;&gt;&lt;tbody&gt;&lt;tr&gt;&lt;td&gt;PK&lt;/td&gt;&lt;td&gt;type&lt;/td&gt;&lt;td&gt;nvarchar(255)&lt;/td&gt;&lt;td&gt;&lt;/td&gt;&lt;/tr&gt;&lt;tr&gt;&lt;td&gt;PK FK&lt;/td&gt;&lt;td&gt;innovation_id&lt;/td&gt;&lt;td&gt;ui&lt;/td&gt;&lt;td&gt;&lt;/td&gt;&lt;/tr&gt;&lt;tr&gt;&lt;td&gt;&lt;br&gt;&lt;/td&gt;&lt;td&gt;temporal *&lt;/td&gt;&lt;td&gt;datetime2&lt;/td&gt;&lt;td&gt;&lt;br&gt;&lt;/td&gt;&lt;/tr&gt;&lt;tr&gt;&lt;td&gt;&lt;/td&gt;&lt;td&gt;audit *&lt;/td&gt;&lt;td&gt;&lt;/td&gt;&lt;td&gt;&lt;/td&gt;&lt;/tr&gt;&lt;/tbody&gt;&lt;/table&gt;" style="fontFamily=Lucida Console;fontSize=11;align=left;overflow=fill;strokeColor=none;labelBorderColor=#999999;html=1;" parent="1" vertex="1">
          <mxGeometry x="10" y="1260" width="310" height="105" as="geometry" />
        </mxCell>
        <mxCell id="bM6USqFYMZth9pwpu3Yk-21" value="&lt;div style=&quot;box-sizing: border-box ; width: 100% ; line-height: 30px ; background: rgba(125 , 125 , 125 , 0.4) ; padding: 0px 5px&quot;&gt;dbo.innovation_section&lt;/div&gt;&lt;table style=&quot;width: 100% ; padding: 0px 2px&quot;&gt;&lt;tbody&gt;&lt;tr&gt;&lt;td&gt;PK&lt;/td&gt;&lt;td&gt;id&lt;/td&gt;&lt;td&gt;ui&lt;/td&gt;&lt;td&gt;&lt;br&gt;&lt;/td&gt;&lt;/tr&gt;&lt;tr&gt;&lt;td&gt;FK&lt;/td&gt;&lt;td&gt;innovation_id&lt;/td&gt;&lt;td&gt;ui&lt;/td&gt;&lt;td&gt;&lt;/td&gt;&lt;/tr&gt;&lt;tr&gt;&lt;td&gt;&lt;br&gt;&lt;/td&gt;&lt;td&gt;section&lt;/td&gt;&lt;td&gt;nvarchar(255)&lt;/td&gt;&lt;td&gt;&lt;br&gt;&lt;/td&gt;&lt;/tr&gt;&lt;tr&gt;&lt;td&gt;&lt;br&gt;&lt;/td&gt;&lt;td&gt;status&lt;/td&gt;&lt;td&gt;nvarchar(255)&lt;/td&gt;&lt;td&gt;&lt;br&gt;&lt;/td&gt;&lt;/tr&gt;&lt;tr&gt;&lt;td&gt;&lt;br&gt;&lt;/td&gt;&lt;td&gt;submitted_at&lt;/td&gt;&lt;td&gt;datetime2&lt;/td&gt;&lt;td&gt;null&lt;/td&gt;&lt;/tr&gt;&lt;tr&gt;&lt;td&gt;&lt;br&gt;&lt;/td&gt;&lt;td&gt;temporal *&lt;/td&gt;&lt;td&gt;&lt;br&gt;&lt;/td&gt;&lt;td&gt;&lt;br&gt;&lt;/td&gt;&lt;/tr&gt;&lt;tr&gt;&lt;td&gt;&lt;/td&gt;&lt;td&gt;audit *&lt;/td&gt;&lt;td&gt;&lt;/td&gt;&lt;td&gt;&lt;/td&gt;&lt;/tr&gt;&lt;/tbody&gt;&lt;/table&gt;" style="fontFamily=Lucida Console;fontSize=11;align=left;overflow=fill;strokeColor=none;labelBorderColor=#999999;html=1;" parent="1" vertex="1">
          <mxGeometry x="1665" y="120" width="295" height="160" as="geometry" />
        </mxCell>
        <mxCell id="bM6USqFYMZth9pwpu3Yk-22" value="&lt;div style=&quot;box-sizing: border-box ; width: 100% ; line-height: 30px ; background: rgba(125 , 125 , 125 , 0.4) ; padding: 0px 5px&quot;&gt;dbo.innovation_section_file&lt;/div&gt;&lt;table style=&quot;width: 100% ; padding: 0px 2px&quot;&gt;&lt;tbody&gt;&lt;tr&gt;&lt;td&gt;PK FK&lt;/td&gt;&lt;td&gt;innovation_section_id&lt;/td&gt;&lt;td&gt;ui&lt;/td&gt;&lt;td&gt;&lt;br&gt;&lt;/td&gt;&lt;/tr&gt;&lt;tr&gt;&lt;td&gt;PK FK&lt;/td&gt;&lt;td&gt;innovation_file_id&lt;/td&gt;&lt;td&gt;ui&lt;/td&gt;&lt;td&gt;&lt;/td&gt;&lt;/tr&gt;&lt;/tbody&gt;&lt;/table&gt;" style="fontFamily=Lucida Console;fontSize=11;align=left;overflow=fill;strokeColor=none;labelBorderColor=#999999;html=1;" parent="1" vertex="1">
          <mxGeometry x="1420" y="120" width="230" height="70" as="geometry" />
        </mxCell>
        <mxCell id="bM6USqFYMZth9pwpu3Yk-23" value="&lt;div style=&quot;box-sizing: border-box ; width: 100% ; line-height: 30px ; background: rgba(125 , 125 , 125 , 0.4) ; padding: 0px 5px&quot;&gt;dbo.innovation_share&lt;/div&gt;&lt;table style=&quot;width: 100% ; padding: 0px 2px&quot;&gt;&lt;tbody&gt;&lt;tr&gt;&lt;td&gt;PK FK&lt;/td&gt;&lt;td&gt;innovation_id&lt;/td&gt;&lt;td&gt;ui&lt;/td&gt;&lt;td&gt;&lt;br&gt;&lt;/td&gt;&lt;/tr&gt;&lt;tr&gt;&lt;td&gt;PK FK&lt;/td&gt;&lt;td&gt;organisation_id&lt;/td&gt;&lt;td&gt;ui&lt;/td&gt;&lt;td&gt;&lt;/td&gt;&lt;/tr&gt;&lt;/tbody&gt;&lt;/table&gt;" style="fontFamily=Lucida Console;fontSize=11;align=left;overflow=fill;strokeColor=none;labelBorderColor=#999999;html=1;" parent="1" vertex="1">
          <mxGeometry x="348.75" y="1220" width="382.5" height="70" as="geometry" />
        </mxCell>
        <mxCell id="bM6USqFYMZth9pwpu3Yk-25" value="&lt;div style=&quot;box-sizing: border-box ; width: 100% ; line-height: 30px ; background: rgba(125 , 125 , 125 , 0.4) ; padding: 0px 5px&quot;&gt;dbo.innovation_standard&lt;/div&gt;&lt;table style=&quot;width: 100% ; padding: 0px 2px&quot;&gt;&lt;tbody&gt;&lt;tr&gt;&lt;td&gt;PK&lt;/td&gt;&lt;td&gt;id&lt;/td&gt;&lt;td&gt;ui&lt;/td&gt;&lt;td&gt;&lt;br&gt;&lt;/td&gt;&lt;/tr&gt;&lt;tr&gt;&lt;td&gt;FK&lt;/td&gt;&lt;td&gt;innovation_id&lt;/td&gt;&lt;td&gt;ui&lt;/td&gt;&lt;td&gt;&lt;/td&gt;&lt;/tr&gt;&lt;tr&gt;&lt;td&gt;&lt;br&gt;&lt;/td&gt;&lt;td&gt;type&lt;/td&gt;&lt;td&gt;nvarchar(255)&lt;/td&gt;&lt;td&gt;&lt;br&gt;&lt;/td&gt;&lt;/tr&gt;&lt;tr&gt;&lt;td&gt;&lt;br&gt;&lt;/td&gt;&lt;td&gt;has_met&lt;/td&gt;&lt;td&gt;nvarchar(255)&lt;/td&gt;&lt;td&gt;&lt;br&gt;&lt;/td&gt;&lt;/tr&gt;&lt;tr&gt;&lt;td&gt;&lt;br&gt;&lt;/td&gt;&lt;td&gt;temporal *&lt;/td&gt;&lt;td&gt;&lt;br&gt;&lt;/td&gt;&lt;td&gt;&lt;br&gt;&lt;/td&gt;&lt;/tr&gt;&lt;tr&gt;&lt;td&gt;&lt;/td&gt;&lt;td&gt;audit *&lt;/td&gt;&lt;td&gt;&lt;/td&gt;&lt;td&gt;&lt;/td&gt;&lt;/tr&gt;&lt;/tbody&gt;&lt;/table&gt;" style="fontFamily=Lucida Console;fontSize=11;align=left;overflow=fill;strokeColor=none;labelBorderColor=#999999;html=1;" parent="1" vertex="1">
          <mxGeometry x="10" y="960" width="310" height="140" as="geometry" />
        </mxCell>
        <mxCell id="bM6USqFYMZth9pwpu3Yk-26" value="&lt;div style=&quot;box-sizing: border-box ; width: 100% ; line-height: 30px ; background: rgba(125 , 125 , 125 , 0.4) ; padding: 0px 5px&quot;&gt;dbo.innovation_assessment_organisation_unit&lt;/div&gt;&lt;table style=&quot;width: 100% ; padding: 0px 2px&quot;&gt;&lt;tbody&gt;&lt;tr&gt;&lt;td&gt;PK FK&lt;/td&gt;&lt;td&gt;innovation_assessment_id&lt;/td&gt;&lt;td&gt;ui&lt;/td&gt;&lt;td&gt;&lt;br&gt;&lt;/td&gt;&lt;/tr&gt;&lt;tr&gt;&lt;td&gt;PK FK&lt;/td&gt;&lt;td&gt;organisation_unit_id&lt;/td&gt;&lt;td&gt;ui&lt;/td&gt;&lt;td&gt;&lt;/td&gt;&lt;/tr&gt;&lt;/tbody&gt;&lt;/table&gt;" style="fontFamily=Lucida Console;fontSize=11;align=left;overflow=fill;strokeColor=none;labelBorderColor=#999999;html=1;" parent="1" vertex="1">
          <mxGeometry x="1170" y="1040" width="330" height="70" as="geometry" />
        </mxCell>
        <mxCell id="bM6USqFYMZth9pwpu3Yk-27" value="&lt;div style=&quot;box-sizing: border-box ; width: 100% ; line-height: 30px ; background: rgba(125 , 125 , 125 , 0.4) ; padding: 0px 5px&quot;&gt;dbo.innovation_subgroup&lt;/div&gt;&lt;table style=&quot;width: 100% ; padding: 0px 2px&quot;&gt;&lt;tbody&gt;&lt;tr&gt;&lt;td&gt;PK&lt;/td&gt;&lt;td&gt;id&lt;/td&gt;&lt;td&gt;ui&lt;/td&gt;&lt;td&gt;&lt;br&gt;&lt;/td&gt;&lt;/tr&gt;&lt;tr&gt;&lt;td&gt;FK&lt;/td&gt;&lt;td&gt;innovation_id&lt;/td&gt;&lt;td&gt;ui&lt;/td&gt;&lt;td&gt;&lt;/td&gt;&lt;/tr&gt;&lt;tr&gt;&lt;td&gt;&lt;br&gt;&lt;/td&gt;&lt;td&gt;name&lt;/td&gt;&lt;td&gt;nvarchar(255)&lt;/td&gt;&lt;td&gt;&lt;br&gt;&lt;/td&gt;&lt;/tr&gt;&lt;tr&gt;&lt;td&gt;&lt;br&gt;&lt;/td&gt;&lt;td&gt;conditions&lt;/td&gt;&lt;td&gt;nvarchar(255)&lt;/td&gt;&lt;td&gt;null&lt;/td&gt;&lt;/tr&gt;&lt;tr&gt;&lt;td&gt;&lt;br&gt;&lt;/td&gt;&lt;td&gt;other_condition&lt;/td&gt;&lt;td&gt;nvarchar(max)&lt;/td&gt;&lt;td&gt;null&lt;/td&gt;&lt;/tr&gt;&lt;tr&gt;&lt;td&gt;&lt;br&gt;&lt;/td&gt;&lt;td&gt;&lt;strike&gt;other_benefit&lt;/strike&gt;&lt;/td&gt;&lt;td&gt;nvarchar(max)&lt;/td&gt;&lt;td&gt;null&lt;/td&gt;&lt;/tr&gt;&lt;tr&gt;&lt;td&gt;&lt;br&gt;&lt;/td&gt;&lt;td&gt;&lt;strike&gt;care_pathway&lt;/strike&gt;&lt;/td&gt;&lt;td&gt;nvarchar(255)&lt;/td&gt;&lt;td&gt;null&lt;/td&gt;&lt;/tr&gt;&lt;tr&gt;&lt;td&gt;&lt;br&gt;&lt;/td&gt;&lt;td&gt;&lt;strike&gt;cost_description&lt;/strike&gt;&lt;/td&gt;&lt;td&gt;nvarchar(max)&lt;br&gt;&lt;/td&gt;&lt;td&gt;null&lt;/td&gt;&lt;/tr&gt;&lt;tr&gt;&lt;td&gt;&lt;br&gt;&lt;/td&gt;&lt;td&gt;&lt;strike&gt;patients_range&lt;/strike&gt;&lt;/td&gt;&lt;td&gt;nvarchar(255)&lt;br&gt;&lt;/td&gt;&lt;td&gt;null&lt;/td&gt;&lt;/tr&gt;&lt;tr&gt;&lt;td&gt;&lt;br&gt;&lt;/td&gt;&lt;td&gt;&lt;strike&gt;sell_expectations&lt;/strike&gt;&lt;/td&gt;&lt;td&gt;nvarchar(max)&lt;br&gt;&lt;/td&gt;&lt;td&gt;null&lt;/td&gt;&lt;/tr&gt;&lt;tr&gt;&lt;td&gt;&lt;br&gt;&lt;/td&gt;&lt;td&gt;&lt;strike&gt;usage_expectations&lt;/strike&gt;&lt;/td&gt;&lt;td&gt;nvarchar(max)&lt;br&gt;&lt;/td&gt;&lt;td&gt;null&lt;/td&gt;&lt;/tr&gt;&lt;tr&gt;&lt;td&gt;&lt;br&gt;&lt;/td&gt;&lt;td&gt;&lt;strike&gt;cost_comparison&lt;/strike&gt;&lt;/td&gt;&lt;td&gt;nvarchar(255)&lt;br&gt;&lt;/td&gt;&lt;td&gt;null&lt;/td&gt;&lt;/tr&gt;&lt;tr&gt;&lt;td&gt;&lt;br&gt;&lt;/td&gt;&lt;td&gt;temporal *&lt;/td&gt;&lt;td&gt;&lt;br&gt;&lt;/td&gt;&lt;td&gt;&lt;br&gt;&lt;/td&gt;&lt;/tr&gt;&lt;tr&gt;&lt;td&gt;&lt;/td&gt;&lt;td&gt;audit *&lt;/td&gt;&lt;td&gt;&lt;/td&gt;&lt;td&gt;&lt;/td&gt;&lt;/tr&gt;&lt;/tbody&gt;&lt;/table&gt;" style="fontFamily=Lucida Console;fontSize=11;align=left;overflow=fill;strokeColor=none;labelBorderColor=#999999;html=1;" parent="1" vertex="1">
          <mxGeometry x="760" y="520" width="320" height="270" as="geometry" />
        </mxCell>
        <mxCell id="bM6USqFYMZth9pwpu3Yk-28" value="&lt;div style=&quot;box-sizing: border-box ; width: 100% ; line-height: 30px ; background: rgba(125 , 125 , 125 , 0.4) ; padding: 0px 5px&quot;&gt;&lt;strike&gt;dbo.innovation_subgroup_benefit&lt;/strike&gt;&lt;/div&gt;&lt;table style=&quot;width: 100% ; padding: 0px 2px&quot;&gt;&lt;tbody&gt;&lt;tr&gt;&lt;td&gt;PK&lt;/td&gt;&lt;td&gt;&lt;strike&gt;type&lt;/strike&gt;&lt;/td&gt;&lt;td&gt;nvarchar(255)&lt;/td&gt;&lt;td&gt;&lt;/td&gt;&lt;/tr&gt;&lt;tr&gt;&lt;td&gt;PK FK&lt;/td&gt;&lt;td&gt;&lt;strike&gt;innovation_subgroup_id&lt;/strike&gt;&lt;/td&gt;&lt;td&gt;ui&lt;/td&gt;&lt;td&gt;&lt;/td&gt;&lt;/tr&gt;&lt;tr&gt;&lt;td&gt;&lt;br&gt;&lt;/td&gt;&lt;td&gt;temporal *&lt;/td&gt;&lt;td&gt;&lt;br&gt;&lt;/td&gt;&lt;td&gt;&lt;br&gt;&lt;/td&gt;&lt;/tr&gt;&lt;tr&gt;&lt;td&gt;&lt;/td&gt;&lt;td&gt;audit *&lt;/td&gt;&lt;td&gt;&lt;/td&gt;&lt;td&gt;&lt;/td&gt;&lt;/tr&gt;&lt;/tbody&gt;&lt;/table&gt;" style="fontFamily=Lucida Console;fontSize=11;align=left;overflow=fill;strokeColor=none;labelBorderColor=#999999;html=1;" parent="1" vertex="1">
          <mxGeometry x="1090" y="520" width="300" height="100" as="geometry" />
        </mxCell>
        <mxCell id="bM6USqFYMZth9pwpu3Yk-29" value="&lt;div style=&quot;box-sizing: border-box ; width: 100% ; line-height: 30px ; background: rgba(125 , 125 , 125 , 0.4) ; padding: 0px 5px&quot;&gt;dbo.innovation_support&lt;/div&gt;&lt;table style=&quot;width: 100% ; padding: 0px 2px&quot;&gt;&lt;tbody&gt;&lt;tr&gt;&lt;td&gt;PK&lt;/td&gt;&lt;td&gt;id&lt;/td&gt;&lt;td&gt;ui&lt;/td&gt;&lt;td&gt;&lt;br&gt;&lt;/td&gt;&lt;/tr&gt;&lt;tr&gt;&lt;td&gt;FK&lt;/td&gt;&lt;td&gt;innovation_id&lt;/td&gt;&lt;td&gt;ui&lt;/td&gt;&lt;td&gt;&lt;/td&gt;&lt;/tr&gt;&lt;tr&gt;&lt;td&gt;FK&lt;/td&gt;&lt;td&gt;organisation_unit_id&lt;/td&gt;&lt;td&gt;ui&lt;/td&gt;&lt;td&gt;&lt;br&gt;&lt;/td&gt;&lt;/tr&gt;&lt;tr&gt;&lt;td&gt;&lt;br&gt;&lt;/td&gt;&lt;td&gt;status&lt;/td&gt;&lt;td&gt;nvarchar(255)&lt;/td&gt;&lt;td&gt;&lt;br&gt;&lt;/td&gt;&lt;/tr&gt;&lt;tr&gt;&lt;td&gt;&lt;br&gt;&lt;/td&gt;&lt;td&gt;temporal *&lt;/td&gt;&lt;td&gt;&lt;br&gt;&lt;/td&gt;&lt;td&gt;&lt;br&gt;&lt;/td&gt;&lt;/tr&gt;&lt;tr&gt;&lt;td&gt;&lt;/td&gt;&lt;td&gt;audit *&lt;/td&gt;&lt;td&gt;&lt;/td&gt;&lt;td&gt;&lt;/td&gt;&lt;/tr&gt;&lt;/tbody&gt;&lt;/table&gt;" style="fontFamily=Lucida Console;fontSize=11;align=left;overflow=fill;strokeColor=none;labelBorderColor=#999999;html=1;" parent="1" vertex="1">
          <mxGeometry x="1665" y="320" width="335" height="140" as="geometry" />
        </mxCell>
        <mxCell id="bM6USqFYMZth9pwpu3Yk-30" value="&lt;div style=&quot;box-sizing: border-box ; width: 100% ; line-height: 30px ; background: rgba(125 , 125 , 125 , 0.4) ; padding: 0px 5px&quot;&gt;dbo.innovation_support_log&lt;/div&gt;&lt;table style=&quot;width: 100% ; padding: 0px 2px&quot;&gt;&lt;tbody&gt;&lt;tr&gt;&lt;td&gt;PK&lt;/td&gt;&lt;td&gt;id&lt;/td&gt;&lt;td&gt;ui&lt;/td&gt;&lt;td&gt;&lt;br&gt;&lt;/td&gt;&lt;/tr&gt;&lt;tr&gt;&lt;td&gt;FK&lt;/td&gt;&lt;td&gt;innovation_id&lt;/td&gt;&lt;td&gt;ui&lt;/td&gt;&lt;td&gt;&lt;/td&gt;&lt;/tr&gt;&lt;tr&gt;&lt;td&gt;FK&lt;/td&gt;&lt;td&gt;created_by_user_role_id&lt;br&gt;&lt;/td&gt;&lt;td&gt;ui&lt;/td&gt;&lt;td&gt;&lt;br&gt;&lt;/td&gt;&lt;/tr&gt;&lt;tr&gt;&lt;td&gt;FK&lt;/td&gt;&lt;td&gt;organisation_unit_id&lt;/td&gt;&lt;td&gt;ui&lt;/td&gt;&lt;td&gt;null&lt;/td&gt;&lt;/tr&gt;&lt;tr&gt;&lt;td&gt;&lt;br&gt;&lt;/td&gt;&lt;td&gt;innovation_support_status&lt;/td&gt;&lt;td&gt;nvarchar(255)&lt;/td&gt;&lt;td&gt;null&lt;/td&gt;&lt;/tr&gt;&lt;tr&gt;&lt;td&gt;&lt;br&gt;&lt;/td&gt;&lt;td&gt;type&lt;/td&gt;&lt;td&gt;nvarchar(50)&lt;/td&gt;&lt;td&gt;null&lt;/td&gt;&lt;/tr&gt;&lt;tr&gt;&lt;td&gt;&lt;br&gt;&lt;/td&gt;&lt;td&gt;description&lt;/td&gt;&lt;td&gt;nvarchar(max)&lt;/td&gt;&lt;td&gt;null&lt;/td&gt;&lt;/tr&gt;&lt;tr&gt;&lt;td&gt;&lt;br&gt;&lt;/td&gt;&lt;td&gt;params&lt;/td&gt;&lt;td&gt;nvarchar(max)&lt;/td&gt;&lt;td&gt;null&lt;/td&gt;&lt;/tr&gt;&lt;tr&gt;&lt;td&gt;&lt;/td&gt;&lt;td&gt;audit *&lt;/td&gt;&lt;td&gt;&lt;/td&gt;&lt;td&gt;&lt;/td&gt;&lt;/tr&gt;&lt;/tbody&gt;&lt;/table&gt;" style="fontFamily=Lucida Console;fontSize=11;align=left;overflow=fill;strokeColor=none;labelBorderColor=#999999;html=1;" parent="1" vertex="1">
          <mxGeometry x="1665" y="470" width="335" height="190" as="geometry" />
        </mxCell>
        <mxCell id="bM6USqFYMZth9pwpu3Yk-31" value="&lt;div style=&quot;box-sizing: border-box ; width: 100% ; line-height: 30px ; background: rgba(125 , 125 , 125 , 0.4) ; padding: 0px 5px&quot;&gt;dbo.innovation_support_log_organisation_unit&lt;/div&gt;&lt;table style=&quot;width: 100% ; padding: 0px 2px&quot;&gt;&lt;tbody&gt;&lt;tr&gt;&lt;td&gt;PK FK&lt;/td&gt;&lt;td&gt;innovation_support_log_id&lt;/td&gt;&lt;td&gt;ui&lt;/td&gt;&lt;td&gt;&lt;br&gt;&lt;/td&gt;&lt;/tr&gt;&lt;tr&gt;&lt;td&gt;PK FK&lt;/td&gt;&lt;td&gt;organisation_unit_id&lt;/td&gt;&lt;td&gt;ui&lt;/td&gt;&lt;td&gt;&lt;/td&gt;&lt;/tr&gt;&lt;/tbody&gt;&lt;/table&gt;" style="fontFamily=Lucida Console;fontSize=11;align=left;overflow=fill;strokeColor=none;labelBorderColor=#999999;html=1;" parent="1" vertex="1">
          <mxGeometry x="2010" y="470" width="310" height="70" as="geometry" />
        </mxCell>
        <mxCell id="bM6USqFYMZth9pwpu3Yk-32" value="&lt;div style=&quot;box-sizing: border-box ; width: 100% ; line-height: 30px ; background: rgba(125 , 125 , 125 , 0.4) ; padding: 0px 5px&quot;&gt;dbo.innovation_support_type&lt;/div&gt;&lt;table style=&quot;width: 100% ; padding: 0px 2px&quot;&gt;&lt;tbody&gt;&lt;tr&gt;&lt;td&gt;PK&lt;/td&gt;&lt;td&gt;type&lt;/td&gt;&lt;td&gt;nvarchar(255)&lt;/td&gt;&lt;td&gt;&lt;/td&gt;&lt;/tr&gt;&lt;tr&gt;&lt;td&gt;PK FK&lt;/td&gt;&lt;td&gt;innovation_subgroup_id&lt;/td&gt;&lt;td&gt;ui&lt;/td&gt;&lt;td&gt;&lt;/td&gt;&lt;/tr&gt;&lt;tr&gt;&lt;td&gt;&lt;br&gt;&lt;/td&gt;&lt;td&gt;temporal *&lt;/td&gt;&lt;td&gt;datetime2&lt;/td&gt;&lt;td&gt;&lt;br&gt;&lt;/td&gt;&lt;/tr&gt;&lt;tr&gt;&lt;td&gt;&lt;/td&gt;&lt;td&gt;audit *&lt;/td&gt;&lt;td&gt;&lt;/td&gt;&lt;td&gt;&lt;/td&gt;&lt;/tr&gt;&lt;/tbody&gt;&lt;/table&gt;" style="fontFamily=Lucida Console;fontSize=11;align=left;overflow=fill;strokeColor=none;labelBorderColor=#999999;html=1;" parent="1" vertex="1">
          <mxGeometry x="10" y="520" width="310" height="100" as="geometry" />
        </mxCell>
        <mxCell id="bM6USqFYMZth9pwpu3Yk-34" value="&lt;div style=&quot;box-sizing: border-box ; width: 100% ; line-height: 30px ; background: rgba(125 , 125 , 125 , 0.4) ; padding: 0px 5px&quot;&gt;dbo.innovation_support_user&lt;/div&gt;&lt;table style=&quot;width: 100% ; padding: 0px 2px&quot;&gt;&lt;tbody&gt;&lt;tr&gt;&lt;td&gt;PK FK&lt;/td&gt;&lt;td&gt;innovation_support_id&lt;/td&gt;&lt;td&gt;ui&lt;/td&gt;&lt;td&gt;&lt;br&gt;&lt;/td&gt;&lt;/tr&gt;&lt;tr&gt;&lt;td&gt;PK FK&lt;/td&gt;&lt;td&gt;organisation_unit_user_id&lt;/td&gt;&lt;td&gt;ui&lt;/td&gt;&lt;td&gt;&lt;/td&gt;&lt;/tr&gt;&lt;/tbody&gt;&lt;/table&gt;" style="fontFamily=Lucida Console;fontSize=11;align=left;overflow=fill;strokeColor=none;labelBorderColor=#999999;html=1;" parent="1" vertex="1">
          <mxGeometry x="2010" y="320" width="270" height="70" as="geometry" />
        </mxCell>
        <mxCell id="bM6USqFYMZth9pwpu3Yk-35" value="&lt;div style=&quot;box-sizing: border-box ; width: 100% ; line-height: 30px ; background: rgba(125 , 125 , 125 , 0.4) ; padding: 0px 5px&quot;&gt;dbo.innovation_transfer&lt;/div&gt;&lt;table style=&quot;width: 100% ; padding: 0px 2px&quot;&gt;&lt;tbody&gt;&lt;tr&gt;&lt;td&gt;PK&lt;/td&gt;&lt;td&gt;id&lt;/td&gt;&lt;td&gt;ui&lt;/td&gt;&lt;td&gt;&lt;br&gt;&lt;/td&gt;&lt;/tr&gt;&lt;tr&gt;&lt;td&gt;FK&lt;/td&gt;&lt;td&gt;innovation_id&lt;/td&gt;&lt;td&gt;ui&lt;/td&gt;&lt;td&gt;&lt;/td&gt;&lt;/tr&gt;&lt;tr&gt;&lt;td&gt;&lt;br&gt;&lt;/td&gt;&lt;td&gt;status&lt;/td&gt;&lt;td&gt;nvarchar(255)&lt;/td&gt;&lt;td&gt;&lt;br&gt;&lt;/td&gt;&lt;/tr&gt;&lt;tr&gt;&lt;td&gt;&lt;br&gt;&lt;/td&gt;&lt;td&gt;email&lt;/td&gt;&lt;td&gt;nvarchar(255)&lt;/td&gt;&lt;td&gt;&lt;br&gt;&lt;/td&gt;&lt;/tr&gt;&lt;tr&gt;&lt;td&gt;&lt;br&gt;&lt;/td&gt;&lt;td&gt;email_count&lt;/td&gt;&lt;td&gt;int&lt;/td&gt;&lt;td&gt;&lt;br&gt;&lt;/td&gt;&lt;/tr&gt;&lt;tr&gt;&lt;td&gt;&lt;br&gt;&lt;/td&gt;&lt;td&gt;finished_at&lt;/td&gt;&lt;td&gt;datetime2&lt;/td&gt;&lt;td&gt;null&lt;/td&gt;&lt;/tr&gt;&lt;tr&gt;&lt;td&gt;&lt;/td&gt;&lt;td&gt;audit *&lt;/td&gt;&lt;td&gt;&lt;/td&gt;&lt;td&gt;&lt;/td&gt;&lt;/tr&gt;&lt;/tbody&gt;&lt;/table&gt;" style="fontFamily=Lucida Console;fontSize=11;align=left;overflow=fill;strokeColor=none;labelBorderColor=#999999;html=1;" parent="1" vertex="1">
          <mxGeometry x="1665" y="1000" width="300" height="160" as="geometry" />
        </mxCell>
        <mxCell id="bM6USqFYMZth9pwpu3Yk-36" value="&lt;div style=&quot;box-sizing: border-box ; width: 100% ; line-height: 30px ; background: rgba(125 , 125 , 125 , 0.4) ; padding: 0px 5px&quot;&gt;dbo.innovation_user_test&lt;/div&gt;&lt;table style=&quot;width: 100% ; padding: 0px 2px&quot;&gt;&lt;tbody&gt;&lt;tr&gt;&lt;td&gt;PK&lt;/td&gt;&lt;td&gt;id&lt;/td&gt;&lt;td&gt;ui&lt;/td&gt;&lt;td&gt;&lt;br&gt;&lt;/td&gt;&lt;/tr&gt;&lt;tr&gt;&lt;td&gt;FK&lt;/td&gt;&lt;td&gt;innovation_id&lt;/td&gt;&lt;td&gt;ui&lt;/td&gt;&lt;td&gt;&lt;/td&gt;&lt;/tr&gt;&lt;tr&gt;&lt;td&gt;&lt;br&gt;&lt;/td&gt;&lt;td&gt;kind&lt;/td&gt;&lt;td&gt;nvarchar(max)&lt;/td&gt;&lt;td&gt;null&lt;/td&gt;&lt;/tr&gt;&lt;tr&gt;&lt;td&gt;&lt;br&gt;&lt;/td&gt;&lt;td&gt;feedback&lt;/td&gt;&lt;td&gt;nvarchar(max)&lt;/td&gt;&lt;td&gt;null&lt;/td&gt;&lt;/tr&gt;&lt;tr&gt;&lt;td&gt;&lt;br&gt;&lt;/td&gt;&lt;td&gt;temporal *&lt;/td&gt;&lt;td&gt;&lt;br&gt;&lt;/td&gt;&lt;td&gt;&lt;br&gt;&lt;/td&gt;&lt;/tr&gt;&lt;tr&gt;&lt;td&gt;&lt;/td&gt;&lt;td&gt;audit *&lt;/td&gt;&lt;td&gt;&lt;/td&gt;&lt;td&gt;&lt;/td&gt;&lt;/tr&gt;&lt;/tbody&gt;&lt;/table&gt;" style="fontFamily=Lucida Console;fontSize=11;align=left;overflow=fill;strokeColor=none;labelBorderColor=#999999;html=1;" parent="1" vertex="1">
          <mxGeometry x="10" y="1110" width="310" height="140" as="geometry" />
        </mxCell>
        <mxCell id="VdOp3q7g6Pz-_JtcYHUa-1" value="&lt;font style=&quot;font-size: 24px&quot;&gt;Innovation related tables&lt;br&gt;&lt;/font&gt;Representation of the tables supporting all information regarding an innovation." style="text;html=1;align=left;verticalAlign=middle;resizable=0;points=[];autosize=1;" parent="1" vertex="1">
          <mxGeometry x="10" y="10" width="440" height="40" as="geometry" />
        </mxCell>
        <mxCell id="VdOp3q7g6Pz-_JtcYHUa-3" value="&lt;table border=&quot;1&quot; style=&quot;border: 1px solid #999999 ; width: 100% ; height: 100% ; border-collapse: collapse&quot; cellpadding=&quot;5&quot;&gt;&lt;tbody&gt;&lt;tr&gt;&lt;td&gt;&lt;b&gt;context&lt;/b&gt;&lt;/td&gt;&lt;td&gt;&lt;b&gt;Notes&lt;/b&gt;&lt;/td&gt;&lt;/tr&gt;&lt;tr&gt;&lt;td&gt;EVIDENCE_OF_EFFECTIVENESS&lt;/td&gt;&lt;td&gt;Files of innovation_evidence + innovation_evidence_file tables&lt;/td&gt;&lt;/tr&gt;&lt;tr&gt;&lt;td&gt;TESTING_WITH_USERS&lt;br&gt;&lt;/td&gt;&lt;td&gt;Files of innovation_user_test&amp;nbsp;+ innovation_section_file&lt;br&gt;&lt;/td&gt;&lt;/tr&gt;&lt;tr&gt;&lt;td&gt;REGULATIONS_AND_STANDARDS&lt;/td&gt;&lt;td&gt;Files of&amp;nbsp;innovation_standard&amp;nbsp;+ innovation_section_file tables&lt;br&gt;&lt;/td&gt;&lt;/tr&gt;&lt;tr&gt;&lt;td&gt;IMPLEMENTATION_PLAN&lt;/td&gt;&lt;td&gt;Files of innovation_deployment_plan&amp;nbsp;+ innovation_section_file tables&lt;br&gt;&lt;/td&gt;&lt;/tr&gt;&lt;/tbody&gt;&lt;/table&gt;" style="resizable=0;autosize=1;fontFamily=Lucida Console;fontSize=11;align=left;overflow=fill;strokeColor=none;spacing=0;html=1;" parent="1" vertex="1">
          <mxGeometry x="810" y="-130" width="650" height="130" as="geometry" />
        </mxCell>
        <mxCell id="6fxYpN9QRrIlATLMiGxp-1" value="Store the &quot;suggested&quot; organisation/units done by the assessment users." style="text;html=1;align=left;verticalAlign=middle;resizable=0;points=[];autosize=1;strokeColor=none;fillColor=none;" parent="1" vertex="1">
          <mxGeometry x="1170" y="1110" width="400" height="20" as="geometry" />
        </mxCell>
        <mxCell id="6fxYpN9QRrIlATLMiGxp-2" value="&lt;b&gt;organisation_unit_id&lt;/b&gt; has value only for accessor&#39;s comments.&lt;br&gt;It was thought to be used on a future/possible scenario of users belonging&lt;br&gt;to several organisation units." style="text;html=1;align=left;verticalAlign=middle;resizable=0;points=[];autosize=1;strokeColor=none;fillColor=none;" parent="1" vertex="1">
          <mxGeometry x="1665" y="890" width="410" height="50" as="geometry" />
        </mxCell>
        <mxCell id="RAaWSpUkUgRm18Jc8iTt-1" value="Store the &quot;suggested&quot; organisations/units done by QA/NA." style="text;html=1;align=left;verticalAlign=middle;resizable=0;points=[];autosize=1;strokeColor=none;fillColor=none;" parent="1" vertex="1">
          <mxGeometry x="2010" y="535" width="330" height="30" as="geometry" />
        </mxCell>
        <mxCell id="iPArN7oloX0sQNUEcmFq-1" value="&lt;div style=&quot;box-sizing: border-box ; width: 100% ; line-height: 30px ; background: rgba(125 , 125 , 125 , 0.4) ; padding: 0px 5px&quot;&gt;dbo.innovation_patients_citizens_benefit&lt;/div&gt;&lt;table style=&quot;width: 100% ; padding: 0px 2px&quot;&gt;&lt;tbody&gt;&lt;tr&gt;&lt;td&gt;PK&lt;/td&gt;&lt;td&gt;type&lt;/td&gt;&lt;td&gt;nvarchar(255)&lt;/td&gt;&lt;td&gt;&lt;/td&gt;&lt;/tr&gt;&lt;tr&gt;&lt;td&gt;PK FK&lt;/td&gt;&lt;td&gt;innovation_id&lt;/td&gt;&lt;td&gt;ui&lt;/td&gt;&lt;td&gt;&lt;/td&gt;&lt;/tr&gt;&lt;tr&gt;&lt;td&gt;&lt;br&gt;&lt;/td&gt;&lt;td&gt;temporal *&lt;/td&gt;&lt;td&gt;&lt;br&gt;&lt;/td&gt;&lt;td&gt;&lt;br&gt;&lt;/td&gt;&lt;/tr&gt;&lt;tr&gt;&lt;td&gt;&lt;/td&gt;&lt;td&gt;audit *&lt;/td&gt;&lt;td&gt;&lt;/td&gt;&lt;td&gt;&lt;/td&gt;&lt;/tr&gt;&lt;/tbody&gt;&lt;/table&gt;" style="fontFamily=Lucida Console;fontSize=11;align=left;overflow=fill;strokeColor=none;labelBorderColor=#999999;html=1;" parent="1" vertex="1">
          <mxGeometry x="10" y="630" width="310" height="100" as="geometry" />
        </mxCell>
        <mxCell id="rgeTFMngUGovvNNPuXsG-1" value="&lt;div style=&quot;box-sizing: border-box ; width: 100% ; line-height: 30px ; background: rgba(125 , 125 , 125 , 0.4) ; padding: 0px 5px&quot;&gt;dbo.innovation_thread&lt;/div&gt;&lt;table style=&quot;width: 100% ; padding: 0px 2px&quot;&gt;&lt;tbody&gt;&lt;tr&gt;&lt;td&gt;PK&lt;/td&gt;&lt;td&gt;id&lt;/td&gt;&lt;td&gt;ui&lt;/td&gt;&lt;td&gt;&lt;/td&gt;&lt;/tr&gt;&lt;tr&gt;&lt;td&gt;FK&lt;/td&gt;&lt;td&gt;innovation_id&lt;/td&gt;&lt;td&gt;ui&lt;/td&gt;&lt;td&gt;&lt;/td&gt;&lt;/tr&gt;&lt;tr&gt;&lt;td&gt;&lt;br&gt;&lt;/td&gt;&lt;td&gt;context_type&lt;/td&gt;&lt;td&gt;varchar(255)&lt;/td&gt;&lt;td&gt;null&lt;/td&gt;&lt;/tr&gt;&lt;tr&gt;&lt;td&gt;&lt;br&gt;&lt;/td&gt;&lt;td&gt;context_id&lt;/td&gt;&lt;td&gt;ui&lt;/td&gt;&lt;td&gt;null&lt;/td&gt;&lt;/tr&gt;&lt;tr&gt;&lt;td&gt;&lt;br&gt;&lt;/td&gt;&lt;td&gt;subject&lt;/td&gt;&lt;td&gt;nvarchar(100)&lt;/td&gt;&lt;td&gt;&lt;br&gt;&lt;/td&gt;&lt;/tr&gt;&lt;tr&gt;&lt;td&gt;FK&lt;/td&gt;&lt;td&gt;author_id&lt;/td&gt;&lt;td&gt;ui&lt;/td&gt;&lt;td&gt;&lt;br&gt;&lt;/td&gt;&lt;/tr&gt;&lt;tr&gt;&lt;td&gt;&lt;/td&gt;&lt;td&gt;audit *&lt;/td&gt;&lt;td&gt;&lt;/td&gt;&lt;td&gt;&lt;/td&gt;&lt;/tr&gt;&lt;/tbody&gt;&lt;/table&gt;" style="fontFamily=Lucida Console;fontSize=11;align=left;overflow=fill;strokeColor=none;labelBorderColor=#999999;html=1;" parent="1" vertex="1">
          <mxGeometry x="2120" y="720" width="320" height="160" as="geometry" />
        </mxCell>
        <mxCell id="rgeTFMngUGovvNNPuXsG-2" value="&lt;div style=&quot;box-sizing: border-box ; width: 100% ; line-height: 30px ; background: rgba(125 , 125 , 125 , 0.4) ; padding: 0px 5px&quot;&gt;dbo.innovation_thread_message&lt;/div&gt;&lt;table style=&quot;width: 100% ; padding: 0px 2px&quot;&gt;&lt;tbody&gt;&lt;tr&gt;&lt;td&gt;PK&lt;/td&gt;&lt;td&gt;id&lt;/td&gt;&lt;td&gt;ui&lt;/td&gt;&lt;td&gt;&lt;/td&gt;&lt;/tr&gt;&lt;tr&gt;&lt;td&gt;FK&lt;/td&gt;&lt;td&gt;innovation_thread_id&lt;/td&gt;&lt;td&gt;ui&lt;/td&gt;&lt;td&gt;&lt;/td&gt;&lt;/tr&gt;&lt;tr&gt;&lt;td&gt;&lt;br&gt;&lt;/td&gt;&lt;td&gt;message&lt;/td&gt;&lt;td&gt;nvarchar(2000)&lt;/td&gt;&lt;td&gt;&lt;br&gt;&lt;/td&gt;&lt;/tr&gt;&lt;tr&gt;&lt;td&gt;&lt;br&gt;&lt;/td&gt;&lt;td&gt;is_editable&lt;/td&gt;&lt;td&gt;bit&lt;/td&gt;&lt;td&gt;null&lt;/td&gt;&lt;/tr&gt;&lt;tr&gt;&lt;td&gt;FK&lt;/td&gt;&lt;td&gt;author_id&lt;/td&gt;&lt;td&gt;ui&lt;/td&gt;&lt;td&gt;&lt;br&gt;&lt;/td&gt;&lt;/tr&gt;&lt;tr&gt;&lt;td&gt;&lt;/td&gt;&lt;td&gt;audit *&lt;/td&gt;&lt;td&gt;&lt;/td&gt;&lt;td&gt;&lt;/td&gt;&lt;/tr&gt;&lt;/tbody&gt;&lt;/table&gt;" style="fontFamily=Lucida Console;fontSize=11;align=left;overflow=fill;strokeColor=none;labelBorderColor=#999999;html=1;" parent="1" vertex="1">
          <mxGeometry x="2120" y="890" width="320" height="137.5" as="geometry" />
        </mxCell>
        <mxCell id="QaFSaZ69ugS4sPRwhrrB-1" value="&lt;table border=&quot;1&quot; style=&quot;border: 1px solid #999999 ; width: 100% ; height: 100% ; border-collapse: collapse&quot; cellpadding=&quot;5&quot;&gt;&lt;tbody&gt;&lt;tr&gt;&lt;td&gt;&lt;b&gt;context_type&lt;/b&gt;&lt;/td&gt;&lt;/tr&gt;&lt;tr&gt;&lt;td&gt;NEEDS_ASSESSMENT&lt;/td&gt;&lt;/tr&gt;&lt;tr&gt;&lt;td&gt;SUPPORT&lt;/td&gt;&lt;/tr&gt;&lt;tr&gt;&lt;td&gt;ACTION&lt;/td&gt;&lt;/tr&gt;&lt;/tbody&gt;&lt;/table&gt;" style="resizable=0;autosize=1;fontFamily=Lucida Console;fontSize=11;align=left;overflow=fill;strokeColor=none;spacing=0;html=1;" parent="1" vertex="1">
          <mxGeometry x="2445" y="715" width="140" height="110" as="geometry" />
        </mxCell>
        <mxCell id="ahfgwSLQxAWRLiG7zTWl-1" value="&lt;div style=&quot;box-sizing: border-box ; width: 100% ; line-height: 30px ; background: rgba(125 , 125 , 125 , 0.4) ; padding: 0px 5px&quot;&gt;dbo.innovation_reassessment_request&lt;/div&gt;&lt;table style=&quot;width: 100% ; padding: 0px 2px&quot;&gt;&lt;tbody&gt;&lt;tr&gt;&lt;td&gt;PK&lt;/td&gt;&lt;td&gt;id&lt;/td&gt;&lt;td&gt;ui&lt;/td&gt;&lt;td&gt;&lt;br&gt;&lt;/td&gt;&lt;/tr&gt;&lt;tr&gt;&lt;td&gt;FK&lt;/td&gt;&lt;td&gt;innovation_id&lt;/td&gt;&lt;td&gt;ui&lt;/td&gt;&lt;td&gt;&lt;/td&gt;&lt;/tr&gt;&lt;tr&gt;&lt;td&gt;FK&lt;/td&gt;&lt;td&gt;innovation_assessment_id&lt;/td&gt;&lt;td&gt;ui&lt;/td&gt;&lt;td&gt;&lt;br&gt;&lt;/td&gt;&lt;/tr&gt;&lt;tr&gt;&lt;td&gt;&lt;br&gt;&lt;/td&gt;&lt;td&gt;updated_innovation_record&lt;/td&gt;&lt;td&gt;nvarchar(3)&lt;/td&gt;&lt;td&gt;null&lt;/td&gt;&lt;/tr&gt;&lt;tr&gt;&lt;td&gt;&lt;br&gt;&lt;/td&gt;&lt;td&gt;description&lt;/td&gt;&lt;td&gt;nvarchar(200)&lt;/td&gt;&lt;td&gt;&lt;br&gt;&lt;/td&gt;&lt;/tr&gt;&lt;tr&gt;&lt;td&gt;&lt;/td&gt;&lt;td&gt;audit *&lt;/td&gt;&lt;td&gt;&lt;/td&gt;&lt;td&gt;&lt;/td&gt;&lt;/tr&gt;&lt;/tbody&gt;&lt;/table&gt;" style="fontFamily=Lucida Console;fontSize=11;align=left;overflow=fill;strokeColor=none;labelBorderColor=#999999;html=1;" parent="1" vertex="1">
          <mxGeometry x="1170" y="1160" width="330" height="140" as="geometry" />
        </mxCell>
        <mxCell id="ahfgwSLQxAWRLiG7zTWl-2" value="&lt;b&gt;innovation_assessment_id&lt;/b&gt;&amp;nbsp;points to the new assessment,&lt;br&gt;based on (cloned) from the previous one" style="text;html=1;align=left;verticalAlign=middle;resizable=0;points=[];autosize=1;strokeColor=none;fillColor=none;" parent="1" vertex="1">
          <mxGeometry x="1170" y="1295" width="340" height="40" as="geometry" />
        </mxCell>
        <mxCell id="fcu9sAYlybVWmuWbwA_1-1" value="&lt;div style=&quot;box-sizing: border-box ; width: 100% ; line-height: 30px ; background: rgba(125 , 125 , 125 , 0.4) ; padding: 0px 5px&quot;&gt;dbo.innovation_export_request&lt;/div&gt;&lt;table style=&quot;width: 100% ; padding: 0px 2px&quot;&gt;&lt;tbody&gt;&lt;tr&gt;&lt;td&gt;PK&lt;/td&gt;&lt;td&gt;id&lt;/td&gt;&lt;td&gt;ui&lt;/td&gt;&lt;td&gt;&lt;br&gt;&lt;/td&gt;&lt;/tr&gt;&lt;tr&gt;&lt;td&gt;FK&lt;/td&gt;&lt;td&gt;innovation_id&lt;/td&gt;&lt;td&gt;ui&lt;/td&gt;&lt;td&gt;&lt;/td&gt;&lt;/tr&gt;&lt;tr&gt;&lt;td&gt;FK&lt;/td&gt;&lt;td&gt;organisation_unit_id&lt;/td&gt;&lt;td&gt;ui&lt;/td&gt;&lt;td&gt;&lt;br&gt;&lt;/td&gt;&lt;/tr&gt;&lt;tr&gt;&lt;td&gt;&lt;br&gt;&lt;/td&gt;&lt;td&gt;status&lt;/td&gt;&lt;td&gt;varchar(50)&lt;/td&gt;&lt;td&gt;&lt;br&gt;&lt;/td&gt;&lt;/tr&gt;&lt;tr&gt;&lt;td&gt;&lt;br&gt;&lt;/td&gt;&lt;td&gt;request_reason&lt;/td&gt;&lt;td&gt;varchar(255)&lt;/td&gt;&lt;td&gt;&lt;br&gt;&lt;/td&gt;&lt;/tr&gt;&lt;tr&gt;&lt;td&gt;&lt;br&gt;&lt;/td&gt;&lt;td&gt;reject_reason&lt;/td&gt;&lt;td&gt;varchar(255)&lt;/td&gt;&lt;td&gt;null&lt;/td&gt;&lt;/tr&gt;&lt;tr&gt;&lt;td&gt;&lt;/td&gt;&lt;td&gt;audit *&lt;/td&gt;&lt;td&gt;&lt;/td&gt;&lt;td&gt;&lt;/td&gt;&lt;/tr&gt;&lt;/tbody&gt;&lt;/table&gt;" style="fontFamily=Lucida Console;fontSize=11;align=left;overflow=fill;strokeColor=none;labelBorderColor=#999999;html=1;" parent="1" vertex="1">
          <mxGeometry x="1665" y="1200" width="300" height="160" as="geometry" />
        </mxCell>
        <mxCell id="N9OYQ0zOW6Hul42dcFU0-1" value="&lt;div style=&quot;box-sizing: border-box ; width: 100% ; line-height: 30px ; background: rgba(125 , 125 , 125 , 0.4) ; padding: 0px 5px&quot;&gt;dbo.innovation_file&lt;/div&gt;&lt;table style=&quot;width: 100% ; padding: 0px 2px&quot;&gt;&lt;tbody&gt;&lt;tr&gt;&lt;td&gt;PK&lt;/td&gt;&lt;td&gt;id&lt;/td&gt;&lt;td&gt;ui&lt;/td&gt;&lt;td&gt;&lt;br&gt;&lt;/td&gt;&lt;/tr&gt;&lt;tr&gt;&lt;td&gt;FK&lt;/td&gt;&lt;td&gt;innovation_id&lt;/td&gt;&lt;td&gt;ui&lt;/td&gt;&lt;td&gt;&lt;/td&gt;&lt;/tr&gt;&lt;tr&gt;&lt;td&gt;FK&lt;/td&gt;&lt;td&gt;created_by_user_role_id&lt;/td&gt;&lt;td&gt;ui&lt;/td&gt;&lt;td&gt;&lt;br&gt;&lt;/td&gt;&lt;/tr&gt;&lt;tr&gt;&lt;td&gt;&lt;br&gt;&lt;/td&gt;&lt;td&gt;storage_id&lt;/td&gt;&lt;td&gt;nvarchar(100)&lt;/td&gt;&lt;td&gt;&lt;br&gt;&lt;/td&gt;&lt;/tr&gt;&lt;tr&gt;&lt;td&gt;&lt;br&gt;&lt;/td&gt;&lt;td&gt;context_type&lt;/td&gt;&lt;td&gt;nvarchar(100)&lt;/td&gt;&lt;td&gt;&lt;br&gt;&lt;/td&gt;&lt;/tr&gt;&lt;tr&gt;&lt;td&gt;&lt;br&gt;&lt;/td&gt;&lt;td&gt;context_id&lt;/td&gt;&lt;td&gt;nvarchar(100)&lt;/td&gt;&lt;td&gt;&lt;br&gt;&lt;/td&gt;&lt;/tr&gt;&lt;tr&gt;&lt;td&gt;&lt;br&gt;&lt;/td&gt;&lt;td&gt;name&lt;/td&gt;&lt;td&gt;nvarchar(100)&lt;/td&gt;&lt;td&gt;&lt;br&gt;&lt;/td&gt;&lt;/tr&gt;&lt;tr&gt;&lt;td&gt;&lt;br&gt;&lt;/td&gt;&lt;td&gt;description&lt;/td&gt;&lt;td&gt;nvarchar(500)&lt;/td&gt;&lt;td&gt;null&lt;/td&gt;&lt;/tr&gt;&lt;tr&gt;&lt;td&gt;&lt;br&gt;&lt;/td&gt;&lt;td&gt;filename&lt;/td&gt;&lt;td&gt;nvarchar(100)&lt;/td&gt;&lt;td&gt;&lt;br&gt;&lt;/td&gt;&lt;/tr&gt;&lt;tr&gt;&lt;td&gt;&lt;br&gt;&lt;/td&gt;&lt;td&gt;filesize&lt;/td&gt;&lt;td&gt;integer&lt;/td&gt;&lt;td&gt;null&lt;/td&gt;&lt;/tr&gt;&lt;tr&gt;&lt;td&gt;&lt;br&gt;&lt;/td&gt;&lt;td&gt;extension&lt;/td&gt;&lt;td&gt;nvarchar(10)&lt;/td&gt;&lt;td&gt;&lt;br&gt;&lt;/td&gt;&lt;/tr&gt;&lt;tr&gt;&lt;td&gt;&lt;/td&gt;&lt;td&gt;audit *&lt;/td&gt;&lt;td&gt;&lt;/td&gt;&lt;td&gt;&lt;/td&gt;&lt;/tr&gt;&lt;/tbody&gt;&lt;/table&gt;" style="fontFamily=Lucida Console;fontSize=11;align=left;overflow=fill;strokeColor=none;labelBorderColor=#999999;html=1;" parent="1" vertex="1">
          <mxGeometry x="760" y="80" width="280" height="240" as="geometry" />
        </mxCell>
        <mxCell id="dhAgZtkAEfUM9htc9Fpq-1" value="&lt;table border=&quot;1&quot; style=&quot;border: 1px solid #999999 ; width: 100% ; height: 100% ; border-collapse: collapse&quot; cellpadding=&quot;5&quot;&gt;&lt;tbody&gt;&lt;tr&gt;&lt;td&gt;&lt;b&gt;context_type&lt;/b&gt;&lt;/td&gt;&lt;/tr&gt;&lt;tr&gt;&lt;td&gt;INNOVATION&lt;/td&gt;&lt;/tr&gt;&lt;tr&gt;&lt;td&gt;INNOVATION_SECTION&lt;/td&gt;&lt;/tr&gt;&lt;tr&gt;&lt;td&gt;&lt;u&gt;INNOVATION_SECTION_EVIDENCE (TBD)&lt;/u&gt;&lt;/td&gt;&lt;/tr&gt;&lt;/tbody&gt;&lt;/table&gt;" style="resizable=0;autosize=1;fontFamily=Lucida Console;fontSize=11;align=left;overflow=fill;strokeColor=none;spacing=0;html=1;" parent="1" vertex="1">
          <mxGeometry x="1050" y="80" width="240" height="110" as="geometry" />
        </mxCell>
        <mxCell id="kvIXmgRYhLCjsY5lzqy1-5" value="&lt;table border=&quot;1&quot; style=&quot;border: 1px solid #999999 ; width: 100% ; height: 100% ; border-collapse: collapse&quot; cellpadding=&quot;5&quot;&gt;&lt;tbody&gt;&lt;tr&gt;&lt;td&gt;&lt;b&gt;REQUEST_USER&lt;/b&gt;&lt;/td&gt;&lt;td&gt;&lt;b&gt;TYPE&lt;/b&gt;&lt;/td&gt;&lt;td&gt;&lt;b&gt;organisation_unit_id&lt;/b&gt;&lt;br&gt;&lt;/td&gt;&lt;/tr&gt;&lt;tr&gt;&lt;td&gt;ADMIN&lt;/td&gt;&lt;td&gt;STATUS_UPDATE&lt;/td&gt;&lt;td&gt;Affected unit id&lt;/td&gt;&lt;/tr&gt;&lt;tr&gt;&lt;td&gt;QA/A&lt;br&gt;&lt;/td&gt;&lt;td&gt;ACCESSOR_SUGGESTION&lt;br&gt;STATUS_UPDATE&lt;br&gt;&lt;/td&gt;&lt;td&gt;Unit from the request user&lt;/td&gt;&lt;/tr&gt;&lt;tr&gt;&lt;td&gt;NA&lt;/td&gt;&lt;td&gt;ASSESSMENT_SUGGESTION&lt;/td&gt;&lt;td&gt;NULL&lt;/td&gt;&lt;/tr&gt;&lt;/tbody&gt;&lt;/table&gt;" style="resizable=0;autosize=1;fontFamily=Lucida Console;fontSize=11;align=left;overflow=fill;strokeColor=none;spacing=0;html=1;" parent="1" vertex="1">
          <mxGeometry x="2010" y="565" width="400" height="120" as="geometry" />
        </mxCell>
      </root>
    </mxGraphModel>
  </diagram>
  <diagram id="EbGqjKGIxGCL08negklT" name="Organisational">
    <mxGraphModel dx="954" dy="674" grid="1" gridSize="10" guides="1" tooltips="1" connect="1" arrows="1" fold="1" page="1" pageScale="1" pageWidth="1654" pageHeight="1169" math="0" shadow="0">
      <root>
        <mxCell id="vipeSyg5Nj4YR13V46Bf-0" />
        <mxCell id="vipeSyg5Nj4YR13V46Bf-1" parent="vipeSyg5Nj4YR13V46Bf-0" />
        <mxCell id="6tXXptnP5ioVQSoJwG3d-0" value="&lt;div style=&quot;box-sizing: border-box ; width: 100% ; line-height: 30px ; background: rgba(125 , 125 , 125 , 0.4) ; padding: 0px 5px&quot;&gt;dbo.organisation&lt;/div&gt;&lt;table style=&quot;width: 100% ; padding: 0px 2px&quot;&gt;&lt;tbody&gt;&lt;tr&gt;&lt;td&gt;PK&lt;/td&gt;&lt;td&gt;id&lt;/td&gt;&lt;td&gt;ui&lt;/td&gt;&lt;td&gt;&lt;/td&gt;&lt;/tr&gt;&lt;tr&gt;&lt;td&gt;&lt;br&gt;&lt;/td&gt;&lt;td&gt;name&lt;/td&gt;&lt;td&gt;nvarchar(100)&lt;/td&gt;&lt;td&gt;&lt;/td&gt;&lt;/tr&gt;&lt;tr&gt;&lt;td&gt;&lt;br&gt;&lt;/td&gt;&lt;td&gt;acronym&lt;/td&gt;&lt;td&gt;nvarchar(20)&lt;/td&gt;&lt;td&gt;null&lt;/td&gt;&lt;/tr&gt;&lt;tr&gt;&lt;td&gt;&lt;/td&gt;&lt;td&gt;type&lt;/td&gt;&lt;td&gt;nvarchar(255)&lt;br&gt;&lt;/td&gt;&lt;td&gt;&lt;/td&gt;&lt;/tr&gt;&lt;tr&gt;&lt;td&gt;&lt;/td&gt;&lt;td&gt;size&lt;/td&gt;&lt;td&gt;nvarchar(255)&lt;/td&gt;&lt;td&gt;null&lt;/td&gt;&lt;/tr&gt;&lt;tr&gt;&lt;td&gt;&lt;/td&gt;&lt;td&gt;is_shadow&lt;/td&gt;&lt;td&gt;bit&lt;/td&gt;&lt;td&gt;&lt;br&gt;&lt;/td&gt;&lt;/tr&gt;&lt;tr&gt;&lt;td&gt;&lt;br&gt;&lt;/td&gt;&lt;td&gt;inactivated_at&lt;/td&gt;&lt;td&gt;datetime2&lt;/td&gt;&lt;td&gt;null&lt;/td&gt;&lt;/tr&gt;&lt;tr&gt;&lt;td&gt;&lt;/td&gt;&lt;td&gt;audit *&lt;/td&gt;&lt;td&gt;&lt;/td&gt;&lt;td&gt;&lt;/td&gt;&lt;/tr&gt;&lt;/tbody&gt;&lt;/table&gt;" style="fontFamily=Lucida Console;fontSize=11;align=left;overflow=fill;strokeColor=none;labelBorderColor=#999999;html=1;" parent="vipeSyg5Nj4YR13V46Bf-1" vertex="1">
          <mxGeometry x="10" y="280" width="270" height="180" as="geometry" />
        </mxCell>
        <mxCell id="6tXXptnP5ioVQSoJwG3d-1" value="&lt;div style=&quot;box-sizing: border-box ; width: 100% ; line-height: 30px ; background: rgba(125 , 125 , 125 , 0.4) ; padding: 0px 5px&quot;&gt;dbo.organisation_unit&lt;/div&gt;&lt;table style=&quot;width: 100% ; padding: 0px 2px&quot;&gt;&lt;tbody&gt;&lt;tr&gt;&lt;td&gt;PK&lt;/td&gt;&lt;td&gt;id&lt;/td&gt;&lt;td&gt;ui&lt;/td&gt;&lt;td&gt;&lt;/td&gt;&lt;/tr&gt;&lt;tr&gt;&lt;td&gt;FK&lt;/td&gt;&lt;td&gt;organisation_id&lt;/td&gt;&lt;td&gt;ui&lt;/td&gt;&lt;td&gt;&lt;br&gt;&lt;/td&gt;&lt;/tr&gt;&lt;tr&gt;&lt;td&gt;&lt;br&gt;&lt;/td&gt;&lt;td&gt;name&lt;/td&gt;&lt;td&gt;nvarchar(255)&lt;/td&gt;&lt;td&gt;&lt;/td&gt;&lt;/tr&gt;&lt;tr&gt;&lt;td&gt;&lt;br&gt;&lt;/td&gt;&lt;td&gt;acronym&lt;/td&gt;&lt;td&gt;nvarchar(20)&lt;/td&gt;&lt;td&gt;null&lt;/td&gt;&lt;/tr&gt;&lt;tr&gt;&lt;td&gt;&lt;/td&gt;&lt;td&gt;is_shadow&lt;/td&gt;&lt;td&gt;bit&lt;/td&gt;&lt;td&gt;&lt;br&gt;&lt;/td&gt;&lt;/tr&gt;&lt;tr&gt;&lt;td&gt;&lt;br&gt;&lt;/td&gt;&lt;td&gt;inactivated_at&lt;/td&gt;&lt;td&gt;datetime2&lt;/td&gt;&lt;td&gt;null&lt;/td&gt;&lt;/tr&gt;&lt;tr&gt;&lt;td&gt;&lt;/td&gt;&lt;td&gt;audit *&lt;/td&gt;&lt;td&gt;&lt;/td&gt;&lt;td&gt;&lt;/td&gt;&lt;/tr&gt;&lt;/tbody&gt;&lt;/table&gt;" style="fontFamily=Lucida Console;fontSize=11;align=left;overflow=fill;strokeColor=none;labelBorderColor=#999999;html=1;" parent="vipeSyg5Nj4YR13V46Bf-1" vertex="1">
          <mxGeometry x="320" y="280" width="280" height="160" as="geometry" />
        </mxCell>
        <mxCell id="6tXXptnP5ioVQSoJwG3d-2" value="&lt;div style=&quot;box-sizing: border-box ; width: 100% ; line-height: 30px ; background: rgba(125 , 125 , 125 , 0.4) ; padding: 0px 5px&quot;&gt;dbo.organisation_unit_user&lt;/div&gt;&lt;table style=&quot;width: 100% ; padding: 0px 2px&quot;&gt;&lt;tbody&gt;&lt;tr&gt;&lt;td&gt;PK&lt;/td&gt;&lt;td&gt;id&lt;/td&gt;&lt;td&gt;ui&lt;/td&gt;&lt;td&gt;&lt;/td&gt;&lt;/tr&gt;&lt;tr&gt;&lt;td&gt;FK&lt;/td&gt;&lt;td&gt;organisation_unit_id&lt;/td&gt;&lt;td&gt;ui&lt;/td&gt;&lt;td&gt;&lt;br&gt;&lt;/td&gt;&lt;/tr&gt;&lt;tr&gt;&lt;td&gt;FK&lt;/td&gt;&lt;td&gt;organisation_user_id&lt;/td&gt;&lt;td&gt;ui&lt;/td&gt;&lt;td&gt;&lt;/td&gt;&lt;/tr&gt;&lt;tr&gt;&lt;td&gt;&lt;/td&gt;&lt;td&gt;audit *&lt;/td&gt;&lt;td&gt;&lt;/td&gt;&lt;td&gt;&lt;/td&gt;&lt;/tr&gt;&lt;/tbody&gt;&lt;/table&gt;" style="fontFamily=Lucida Console;fontSize=11;align=left;overflow=fill;strokeColor=none;labelBorderColor=#999999;html=1;" parent="vipeSyg5Nj4YR13V46Bf-1" vertex="1">
          <mxGeometry x="610" y="280" width="280" height="110" as="geometry" />
        </mxCell>
        <mxCell id="6tXXptnP5ioVQSoJwG3d-3" value="&lt;div style=&quot;box-sizing: border-box ; width: 100% ; line-height: 30px ; background: rgba(125 , 125 , 125 , 0.4) ; padding: 0px 5px&quot;&gt;dbo.organisation_user&lt;/div&gt;&lt;table style=&quot;width: 100% ; padding: 0px 2px&quot;&gt;&lt;tbody&gt;&lt;tr&gt;&lt;td&gt;PK&lt;/td&gt;&lt;td&gt;id&lt;/td&gt;&lt;td&gt;ui&lt;/td&gt;&lt;td&gt;&lt;/td&gt;&lt;/tr&gt;&lt;tr&gt;&lt;td&gt;FK&lt;/td&gt;&lt;td&gt;organisation_id&lt;/td&gt;&lt;td&gt;ui&lt;/td&gt;&lt;td&gt;&lt;br&gt;&lt;/td&gt;&lt;/tr&gt;&lt;tr&gt;&lt;td&gt;FK&lt;/td&gt;&lt;td&gt;user_id&lt;/td&gt;&lt;td&gt;nvarchar(255)&lt;/td&gt;&lt;td&gt;&lt;/td&gt;&lt;/tr&gt;&lt;tr&gt;&lt;td&gt;&lt;br&gt;&lt;/td&gt;&lt;td&gt;role&lt;/td&gt;&lt;td&gt;nvarchar(50)&lt;/td&gt;&lt;td&gt;&lt;br&gt;&lt;/td&gt;&lt;/tr&gt;&lt;tr&gt;&lt;td&gt;&lt;/td&gt;&lt;td&gt;audit *&lt;/td&gt;&lt;td&gt;&lt;/td&gt;&lt;td&gt;&lt;/td&gt;&lt;/tr&gt;&lt;/tbody&gt;&lt;/table&gt;" style="fontFamily=Lucida Console;fontSize=11;align=left;overflow=fill;strokeColor=none;labelBorderColor=#999999;html=1;" parent="vipeSyg5Nj4YR13V46Bf-1" vertex="1">
          <mxGeometry x="320" y="480" width="280" height="120" as="geometry" />
        </mxCell>
        <mxCell id="6tXXptnP5ioVQSoJwG3d-4" value="&lt;div style=&quot;box-sizing: border-box ; width: 100% ; line-height: 30px ; background: rgba(125 , 125 , 125 , 0.4) ; padding: 0px 5px&quot;&gt;dbo.role&lt;/div&gt;&lt;table style=&quot;width: 100% ; padding: 0px 2px&quot;&gt;&lt;tbody&gt;&lt;tr&gt;&lt;td&gt;PK&lt;/td&gt;&lt;td&gt;id&lt;/td&gt;&lt;td&gt;ui&lt;/td&gt;&lt;td&gt;&lt;/td&gt;&lt;/tr&gt;&lt;tr&gt;&lt;td&gt;&lt;br&gt;&lt;/td&gt;&lt;td&gt;name&lt;/td&gt;&lt;td&gt;ui&lt;/td&gt;&lt;td&gt;&lt;br&gt;&lt;/td&gt;&lt;/tr&gt;&lt;tr&gt;&lt;td&gt;&lt;/td&gt;&lt;td&gt;audit *&lt;/td&gt;&lt;td&gt;&lt;/td&gt;&lt;td&gt;&lt;/td&gt;&lt;/tr&gt;&lt;/tbody&gt;&lt;/table&gt;" style="fontFamily=Lucida Console;fontSize=11;align=left;overflow=fill;strokeColor=none;labelBorderColor=#999999;html=1;" parent="vipeSyg5Nj4YR13V46Bf-1" vertex="1">
          <mxGeometry x="610" y="80" width="180" height="130" as="geometry" />
        </mxCell>
        <mxCell id="eZ7qG0lW-s1f5Moounxz-0" value="&lt;div style=&quot;box-sizing: border-box ; width: 100% ; line-height: 30px ; background: rgba(125 , 125 , 125 , 0.4) ; padding: 0px 5px&quot;&gt;dbo.user&lt;/div&gt;&lt;table style=&quot;width: 100% ; padding: 0px 2px&quot;&gt;&lt;tbody&gt;&lt;tr&gt;&lt;td&gt;PK&lt;/td&gt;&lt;td&gt;id&lt;/td&gt;&lt;td&gt;nvarchar(255)&lt;/td&gt;&lt;td&gt;&lt;/td&gt;&lt;/tr&gt;&lt;tr&gt;&lt;td&gt;&lt;br&gt;&lt;/td&gt;&lt;td&gt;external_id&lt;/td&gt;&lt;td&gt;nvarchar(255)&lt;/td&gt;&lt;td&gt;null&lt;/td&gt;&lt;/tr&gt;&lt;tr&gt;&lt;td&gt;FK&lt;/td&gt;&lt;td&gt;type&lt;/td&gt;&lt;td&gt;nvarchar(255)&lt;/td&gt;&lt;td&gt;&lt;br&gt;&lt;/td&gt;&lt;/tr&gt;&lt;tr&gt;&lt;td&gt;&lt;br&gt;&lt;/td&gt;&lt;td&gt;locked_at&lt;/td&gt;&lt;td&gt;datetime2&lt;/td&gt;&lt;td&gt;null&lt;/td&gt;&lt;/tr&gt;&lt;tr&gt;&lt;td&gt;&lt;br&gt;&lt;/td&gt;&lt;td&gt;delete_reason&lt;/td&gt;&lt;td&gt;nvarchar(max)&lt;/td&gt;&lt;td&gt;null&lt;/td&gt;&lt;/tr&gt;&lt;tr&gt;&lt;td&gt;&lt;/td&gt;&lt;td&gt;audit *&lt;/td&gt;&lt;td&gt;&lt;/td&gt;&lt;td&gt;&lt;/td&gt;&lt;/tr&gt;&lt;/tbody&gt;&lt;/table&gt;" style="fontFamily=Lucida Console;fontSize=11;align=left;overflow=fill;strokeColor=none;labelBorderColor=#999999;html=1;" parent="vipeSyg5Nj4YR13V46Bf-1" vertex="1">
          <mxGeometry x="10" y="80" width="270" height="140" as="geometry" />
        </mxCell>
        <mxCell id="eZ7qG0lW-s1f5Moounxz-1" value="&lt;div style=&quot;box-sizing: border-box ; width: 100% ; line-height: 30px ; background: rgba(125 , 125 , 125 , 0.4) ; padding: 0px 5px&quot;&gt;dbo.user_role&lt;/div&gt;&lt;table style=&quot;width: 100% ; padding: 0px 2px&quot;&gt;&lt;tbody&gt;&lt;tr&gt;&lt;td&gt;PK&lt;/td&gt;&lt;td&gt;id&lt;/td&gt;&lt;td&gt;ui&lt;/td&gt;&lt;td&gt;&lt;/td&gt;&lt;/tr&gt;&lt;tr&gt;&lt;td&gt;FK&lt;/td&gt;&lt;td&gt;user_id&lt;/td&gt;&lt;td&gt;nvarchar(255)&lt;/td&gt;&lt;td&gt;&lt;br&gt;&lt;/td&gt;&lt;/tr&gt;&lt;tr&gt;&lt;td&gt;FK&lt;/td&gt;&lt;td&gt;role_id&lt;/td&gt;&lt;td&gt;ui&lt;/td&gt;&lt;td&gt;&lt;br&gt;&lt;/td&gt;&lt;/tr&gt;&lt;tr&gt;&lt;td&gt;&lt;br&gt;&lt;/td&gt;&lt;td&gt;active_since&lt;/td&gt;&lt;td&gt;datetime2&lt;/td&gt;&lt;td&gt;&lt;br&gt;&lt;/td&gt;&lt;/tr&gt;&lt;tr&gt;&lt;td&gt;&lt;/td&gt;&lt;td&gt;audit *&lt;/td&gt;&lt;td&gt;&lt;/td&gt;&lt;td&gt;&lt;/td&gt;&lt;/tr&gt;&lt;/tbody&gt;&lt;/table&gt;" style="fontFamily=Lucida Console;fontSize=11;align=left;overflow=fill;strokeColor=none;labelBorderColor=#999999;html=1;" parent="vipeSyg5Nj4YR13V46Bf-1" vertex="1">
          <mxGeometry x="320" y="80" width="280" height="130" as="geometry" />
        </mxCell>
        <mxCell id="h-kfdTiHfT1yulovmt8b-0" value="&lt;font style=&quot;font-size: 24px&quot;&gt;Organisational (from organisation) tables&lt;br&gt;&lt;/font&gt;Representation of the tables supporting all information regarding users, organisations and units." style="text;html=1;align=left;verticalAlign=middle;resizable=0;points=[];autosize=1;" parent="vipeSyg5Nj4YR13V46Bf-1" vertex="1">
          <mxGeometry x="10" y="10" width="520" height="40" as="geometry" />
        </mxCell>
        <mxCell id="F4brYrFJoSR-iMqz-ZI6-0" value="&lt;table border=&quot;1&quot; style=&quot;border: 1px solid #999999 ; width: 100% ; height: 100% ; border-collapse: collapse&quot; cellpadding=&quot;5&quot;&gt;&lt;tbody&gt;&lt;tr&gt;&lt;td&gt;&lt;b&gt;type&lt;/b&gt;&lt;/td&gt;&lt;td&gt;&lt;b&gt;role&lt;/b&gt;&lt;/td&gt;&lt;/tr&gt;&lt;tr&gt;&lt;td&gt;ADMIN&lt;/td&gt;&lt;td&gt;ADMIN | SERVICE_TEAM&lt;/td&gt;&lt;/tr&gt;&lt;tr&gt;&lt;td&gt;ASSESSMENT&lt;br&gt;&lt;/td&gt;&lt;td&gt;None&lt;/td&gt;&lt;/tr&gt;&lt;tr&gt;&lt;td&gt;ACCESSOR&lt;/td&gt;&lt;td&gt;None&lt;/td&gt;&lt;/tr&gt;&lt;tr&gt;&lt;td&gt;INNOVATOR&lt;/td&gt;&lt;td&gt;None&lt;/td&gt;&lt;/tr&gt;&lt;/tbody&gt;&lt;/table&gt;" style="resizable=0;autosize=1;fontFamily=Lucida Console;fontSize=11;align=left;overflow=fill;strokeColor=none;spacing=0;html=1;" parent="vipeSyg5Nj4YR13V46Bf-1" vertex="1">
          <mxGeometry x="840" y="80" width="240" height="130" as="geometry" />
        </mxCell>
        <mxCell id="st-bidNH8E-EL4NdjfJG-0" value="&lt;table border=&quot;1&quot; style=&quot;border: 1px solid #999999 ; width: 100% ; height: 100% ; border-collapse: collapse&quot; cellpadding=&quot;5&quot;&gt;&lt;tbody&gt;&lt;tr&gt;&lt;td&gt;&lt;b&gt;role&lt;/b&gt;&lt;/td&gt;&lt;/tr&gt;&lt;tr&gt;&lt;td&gt;INNOVATOR_OWNER&lt;/td&gt;&lt;/tr&gt;&lt;tr&gt;&lt;td&gt;QUALIFYING_ACCESSOR&lt;/td&gt;&lt;/tr&gt;&lt;tr&gt;&lt;td&gt;ACCESSOR&lt;/td&gt;&lt;/tr&gt;&lt;/tbody&gt;&lt;/table&gt;" style="resizable=0;autosize=1;fontFamily=Lucida Console;fontSize=11;align=left;overflow=fill;strokeColor=none;spacing=0;html=1;" parent="vipeSyg5Nj4YR13V46Bf-1" vertex="1">
          <mxGeometry x="610" y="480" width="150" height="100" as="geometry" />
        </mxCell>
        <mxCell id="zHiI93wwijdrrLPX70xo-0" value="&lt;table border=&quot;1&quot; style=&quot;border: 1px solid #999999 ; width: 100% ; height: 100% ; border-collapse: collapse&quot; cellpadding=&quot;5&quot;&gt;&lt;tbody&gt;&lt;tr&gt;&lt;td&gt;&lt;b&gt;user.type&lt;/b&gt;&lt;/td&gt;&lt;td&gt;&lt;b&gt;user_role.role&lt;/b&gt;&lt;/td&gt;&lt;td&gt;&lt;b&gt;organisation&lt;/b&gt;&lt;/td&gt;&lt;td&gt;&lt;b&gt;organisation.type&lt;/b&gt;&lt;/td&gt;&lt;td&gt;&lt;b&gt;organisation unit&lt;/b&gt;&lt;/td&gt;&lt;/tr&gt;&lt;tr&gt;&lt;td&gt;ADMIN&lt;/td&gt;&lt;td&gt;ADMIN | SERVICE_TEAM&lt;/td&gt;&lt;td&gt;None&lt;/td&gt;&lt;td&gt;&lt;br&gt;&lt;/td&gt;&lt;td&gt;None&lt;/td&gt;&lt;/tr&gt;&lt;tr&gt;&lt;td&gt;ASSESSMENT&lt;br&gt;&lt;/td&gt;&lt;td&gt;None&lt;/td&gt;&lt;td&gt;None&lt;/td&gt;&lt;td&gt;&lt;br&gt;&lt;/td&gt;&lt;td&gt;None&lt;/td&gt;&lt;/tr&gt;&lt;tr&gt;&lt;td&gt;ACCESSOR&lt;/td&gt;&lt;td&gt;None&lt;/td&gt;&lt;td&gt;1 organisation&lt;/td&gt;&lt;td&gt;&lt;br&gt;&lt;/td&gt;&lt;td&gt;1 unit&lt;/td&gt;&lt;/tr&gt;&lt;tr&gt;&lt;td&gt;INNOVATOR&lt;/td&gt;&lt;td&gt;None&lt;/td&gt;&lt;td&gt;1 organisation&lt;/td&gt;&lt;td&gt;&lt;br&gt;&lt;/td&gt;&lt;td&gt;None&lt;/td&gt;&lt;/tr&gt;&lt;/tbody&gt;&lt;/table&gt;" style="resizable=0;autosize=1;fontFamily=Lucida Console;fontSize=11;align=left;overflow=fill;strokeColor=none;spacing=0;html=1;" parent="vipeSyg5Nj4YR13V46Bf-1" vertex="1">
          <mxGeometry x="510" y="700" width="600" height="130" as="geometry" />
        </mxCell>
      </root>
    </mxGraphModel>
  </diagram>
  <diagram id="8m-vxlWFc8tHtTxoZIXZ" name="Activity Log">
    <mxGraphModel dx="794" dy="854" grid="1" gridSize="10" guides="1" tooltips="1" connect="1" arrows="1" fold="1" page="1" pageScale="1" pageWidth="1654" pageHeight="1169" math="0" shadow="0">
      <root>
        <mxCell id="8okGFXeEVoXndodyh0Hc-0" />
        <mxCell id="8okGFXeEVoXndodyh0Hc-1" parent="8okGFXeEVoXndodyh0Hc-0" />
        <mxCell id="GRwDAdYQIYiYm_BZ6oQk-0" value="&lt;div style=&quot;box-sizing: border-box ; width: 100% ; line-height: 30px ; background: rgba(125 , 125 , 125 , 0.4) ; padding: 0px 5px&quot;&gt;dbo.activity_log&lt;/div&gt;&lt;table style=&quot;width: 100% ; padding: 0px 2px&quot;&gt;&lt;tbody&gt;&lt;tr&gt;&lt;td&gt;PK&lt;/td&gt;&lt;td&gt;id&lt;/td&gt;&lt;td&gt;ui&lt;/td&gt;&lt;td&gt;&lt;/td&gt;&lt;/tr&gt;&lt;tr&gt;&lt;td&gt;FK&lt;/td&gt;&lt;td&gt;innovation_id&lt;/td&gt;&lt;td&gt;ui&lt;/td&gt;&lt;td&gt;&lt;/td&gt;&lt;/tr&gt;&lt;tr&gt;&lt;td&gt;&lt;/td&gt;&lt;td&gt;type&lt;/td&gt;&lt;td&gt;nvarchar(255)&lt;br&gt;&lt;/td&gt;&lt;td&gt;&lt;/td&gt;&lt;/tr&gt;&lt;tr&gt;&lt;td&gt;&lt;/td&gt;&lt;td&gt;activity&lt;/td&gt;&lt;td&gt;nvarchar(255)&lt;/td&gt;&lt;td&gt;&lt;br&gt;&lt;/td&gt;&lt;/tr&gt;&lt;tr&gt;&lt;td&gt;&lt;/td&gt;&lt;td&gt;param&lt;/td&gt;&lt;td&gt;nvarchar(max)&lt;br&gt;&lt;/td&gt;&lt;td&gt;null&lt;/td&gt;&lt;/tr&gt;&lt;tr&gt;&lt;td&gt;&lt;/td&gt;&lt;td&gt;audit *&lt;/td&gt;&lt;td&gt;&lt;/td&gt;&lt;td&gt;&lt;/td&gt;&lt;/tr&gt;&lt;/tbody&gt;&lt;/table&gt;" style="fontFamily=Lucida Console;fontSize=11;align=left;overflow=fill;strokeColor=none;labelBorderColor=#999999;html=1;" parent="8okGFXeEVoXndodyh0Hc-1" vertex="1">
          <mxGeometry x="10" y="80" width="270" height="140" as="geometry" />
        </mxCell>
        <mxCell id="GRwDAdYQIYiYm_BZ6oQk-1" value="&lt;table border=&quot;1&quot; style=&quot;border: 1px solid #999999 ; width: 100% ; height: 100% ; border-collapse: collapse&quot; cellpadding=&quot;5&quot;&gt;&lt;tbody&gt;&lt;tr&gt;&lt;td&gt;&lt;b&gt;type&lt;/b&gt;&lt;/td&gt;&lt;td style=&quot;line-height: 120%&quot;&gt;&lt;b&gt;activity&lt;/b&gt;&lt;/td&gt;&lt;td&gt;&lt;b&gt;param&lt;/b&gt;&lt;/td&gt;&lt;/tr&gt;&lt;tr&gt;&lt;td&gt;INNOVATION_MANAGEMENT&lt;/td&gt;&lt;td&gt;INNOVATION_CREATION&lt;/td&gt;&lt;td&gt;{&lt;br&gt;&amp;nbsp; actionUserName: &#39;&#39;,&lt;br&gt;&amp;nbsp; innovationName: &#39;&#39;&lt;br&gt;}&lt;br&gt;&lt;/td&gt;&lt;/tr&gt;&lt;tr&gt;&lt;td&gt;INNOVATION_MANAGEMENT&lt;br&gt;&lt;/td&gt;&lt;td&gt;OWNERSHIP_TRANSFER&lt;/td&gt;&lt;td&gt;{&lt;br&gt;&amp;nbsp; actionUserName: &#39;&#39;,&lt;br&gt;&amp;nbsp; interveningUserName: &#39;&#39;&lt;br&gt;}&lt;br&gt;&lt;/td&gt;&lt;/tr&gt;&lt;tr&gt;&lt;td&gt;INNOVATION_MANAGEMENT&lt;br&gt;&lt;/td&gt;&lt;td&gt;SHARING_PREFERENCES_UPDATE&lt;/td&gt;&lt;td&gt;{&lt;br&gt;&amp;nbsp; actionUserName: &#39;&#39;,&lt;br&gt;}&lt;br&gt;&lt;/td&gt;&lt;/tr&gt;&lt;tr&gt;&lt;td&gt;INNOVATION_RECORD&lt;/td&gt;&lt;td&gt;SECTION_DRAFT_UPDATE&lt;/td&gt;&lt;td&gt;{&lt;br&gt;&amp;nbsp;&amp;nbsp;actionUserName: &#39;&#39;,&lt;br&gt;&amp;nbsp; sectionId: &#39;&#39;&lt;br&gt;}&lt;br&gt;&lt;/td&gt;&lt;/tr&gt;&lt;tr&gt;&lt;td&gt;INNOVATION_RECORD&lt;br&gt;&lt;/td&gt;&lt;td&gt;SECTION_SUBMISSION&lt;/td&gt;&lt;td&gt;{&lt;br&gt;&amp;nbsp; actionUserName: &#39;&#39;,&lt;br&gt;&amp;nbsp; sectionId: &#39;&#39;&lt;br&gt;}&lt;br&gt;&lt;/td&gt;&lt;/tr&gt;&lt;tr&gt;&lt;td&gt;NEEDS_ASSESSMENT&lt;/td&gt;&lt;td&gt;INNOVATION_SUBMISSION&lt;/td&gt;&lt;td&gt;{&lt;br&gt;&amp;nbsp; actionUserName: &#39;&#39;,&lt;br&gt;}&lt;br&gt;&lt;/td&gt;&lt;/tr&gt;&lt;tr&gt;&lt;td&gt;NEEDS_ASSESSMENT&lt;br&gt;&lt;/td&gt;&lt;td&gt;NEEDS_ASSESSMENT_START&lt;/td&gt;&lt;td&gt;{&lt;br&gt;&amp;nbsp; actionUserName: &#39;&#39;&lt;br&gt;}&lt;br&gt;&lt;/td&gt;&lt;/tr&gt;&lt;tr&gt;&lt;td&gt;NEEDS_ASSESSMENT&lt;br&gt;&lt;/td&gt;&lt;td&gt;NEEDS_ASSESSMENT_COMPLETED&lt;br&gt;&lt;/td&gt;&lt;td&gt;{&lt;br&gt;&amp;nbsp; actionUserName: &#39;&#39;,&lt;br&gt;&amp;nbsp; assessmentId: &#39;&#39;&lt;br&gt;}&lt;br&gt;&lt;/td&gt;&lt;/tr&gt;&lt;tr&gt;&lt;td&gt;SUPPORT&lt;br&gt;&lt;/td&gt;&lt;td&gt;ORGANISATION_SUGGESTION&lt;/td&gt;&lt;td&gt;{&lt;br&gt;&amp;nbsp; actionUserName: &#39;&#39;,&lt;br&gt;&amp;nbsp; organisations: [&#39;&#39;]&lt;br&gt;}&lt;br&gt;&lt;/td&gt;&lt;/tr&gt;&lt;tr&gt;&lt;td&gt;SUPPORT&lt;/td&gt;&lt;td&gt;SUPPORT_STATUS_UPDATE&lt;/td&gt;&lt;td&gt;{&lt;br&gt;&amp;nbsp; actionUserName: &#39;&#39;,&lt;br&gt;&amp;nbsp; innovationSupportStatus: &#39;ENGAGING&#39;,&lt;br&gt;&amp;nbsp; organisationUnit: &#39;&#39;&lt;br&gt;}&lt;br&gt;&lt;/td&gt;&lt;/tr&gt;&lt;tr&gt;&lt;td&gt;ACTIONS&lt;/td&gt;&lt;td&gt;ACTION_CREATION&lt;/td&gt;&lt;td&gt;{&lt;br&gt;&amp;nbsp; actionUserName: &#39;&#39;,&lt;br&gt;&amp;nbsp; sectionId: &#39;&#39;,&lt;br&gt;&amp;nbsp; actionId: &#39;&#39;&lt;br&gt;}&lt;br&gt;&lt;/td&gt;&lt;/tr&gt;&lt;tr&gt;&lt;td&gt;ACTIONS&lt;br&gt;&lt;/td&gt;&lt;td&gt;ACTION_STATUS_IN_REVIEW_UPDATE&lt;/td&gt;&lt;td&gt;{&lt;br&gt;&amp;nbsp; actionUserName: &#39;&#39;,&lt;br&gt;&amp;nbsp; sectionId: &#39;&#39;,&lt;br&gt;&amp;nbsp; totalActions: 0&lt;br&gt;}&lt;br&gt;&lt;/td&gt;&lt;/tr&gt;&lt;tr&gt;&lt;td&gt;ACTIONS&lt;br&gt;&lt;/td&gt;&lt;td&gt;ACTION_STATUS_IN_COMPLETED_UPDATE&lt;br&gt;&lt;/td&gt;&lt;td&gt;{&lt;br&gt;&amp;nbsp; actionUserName: &#39;&#39;,&lt;br&gt;&amp;nbsp; actionId: &#39;&#39;,&lt;br&gt;&amp;nbsp; comment: { id: &#39;&#39;, value: &#39;&#39; }&lt;br&gt;}&lt;br&gt;&lt;/td&gt;&lt;/tr&gt;&lt;tr&gt;&lt;td&gt;ACTIONS&lt;br&gt;&lt;/td&gt;&lt;td&gt;ACTION_STATUS_IN_DECLINED_UPDATE&lt;br&gt;&lt;/td&gt;&lt;td&gt;{&lt;br&gt;&amp;nbsp; actionUserName: &#39;&#39;,&lt;br&gt;&amp;nbsp; interveningUserId: &#39;&#39;,&lt;br&gt;&amp;nbsp; actionId: &#39;&#39;,&lt;br&gt;&amp;nbsp; comment: { id: &#39;&#39;, value: &#39;&#39; }&lt;br&gt;}&lt;br&gt;&lt;/td&gt;&lt;/tr&gt;&lt;tr&gt;&lt;td&gt;COMMENTS&lt;/td&gt;&lt;td&gt;COMMENT_CREATION&lt;/td&gt;&lt;td&gt;{&lt;br&gt;&amp;nbsp; actionUserName: &#39;&#39;,&lt;br&gt;&amp;nbsp; comment: { id: &#39;&#39;, value: &#39;&#39; }&lt;br&gt;}&lt;br&gt;&lt;/td&gt;&lt;/tr&gt;&lt;/tbody&gt;&lt;/table&gt;" style="resizable=0;autosize=1;fontFamily=Lucida Console;fontSize=11;align=left;overflow=fill;strokeColor=none;spacing=0;html=1;" parent="8okGFXeEVoXndodyh0Hc-1" vertex="1">
          <mxGeometry x="290" y="155" width="660" height="1010" as="geometry" />
        </mxCell>
        <mxCell id="GRwDAdYQIYiYm_BZ6oQk-2" value="&lt;font style=&quot;font-size: 24px&quot;&gt;Activity Log table&lt;br&gt;&lt;/font&gt;This schema represents core/system tables and content. All content is populated trought &lt;b&gt;seeds (versioned content), never by user&lt;/b&gt; interaction!" style="text;html=1;align=left;verticalAlign=middle;resizable=0;points=[];autosize=1;" parent="8okGFXeEVoXndodyh0Hc-1" vertex="1">
          <mxGeometry x="10" y="10" width="780" height="40" as="geometry" />
        </mxCell>
      </root>
    </mxGraphModel>
  </diagram>
  <diagram name="Notifications" id="eszcmzHglDDZN7Z9PX4S">
    <mxGraphModel dx="2074" dy="854" grid="1" gridSize="10" guides="1" tooltips="1" connect="1" arrows="1" fold="1" page="1" pageScale="1" pageWidth="1654" pageHeight="1169" math="0" shadow="0">
      <root>
        <mxCell id="wcxuSlMPL5jlp5jmsRLV-0" />
        <mxCell id="wcxuSlMPL5jlp5jmsRLV-1" parent="wcxuSlMPL5jlp5jmsRLV-0" />
        <mxCell id="wcxuSlMPL5jlp5jmsRLV-2" value="&lt;div style=&quot;box-sizing: border-box ; width: 100% ; line-height: 30px ; background: rgba(125 , 125 , 125 , 0.4) ; padding: 0px 5px&quot;&gt;dbo.notification&lt;/div&gt;&lt;table style=&quot;width: 100% ; padding: 0px 2px&quot;&gt;&lt;tbody&gt;&lt;tr&gt;&lt;td&gt;PK&lt;/td&gt;&lt;td&gt;id&lt;/td&gt;&lt;td&gt;ui&lt;/td&gt;&lt;td&gt;&lt;/td&gt;&lt;/tr&gt;&lt;tr&gt;&lt;td&gt;FK&lt;/td&gt;&lt;td&gt;innovation_id&lt;/td&gt;&lt;td&gt;ui&lt;/td&gt;&lt;td&gt;&lt;/td&gt;&lt;/tr&gt;&lt;tr&gt;&lt;td&gt;&lt;/td&gt;&lt;td&gt;context_type&lt;/td&gt;&lt;td&gt;nvarchar(100)&lt;br&gt;&lt;/td&gt;&lt;td&gt;&lt;/td&gt;&lt;/tr&gt;&lt;tr&gt;&lt;td&gt;&lt;br&gt;&lt;/td&gt;&lt;td&gt;context_detail&lt;/td&gt;&lt;td&gt;nvarchar(100)&lt;/td&gt;&lt;td&gt;&lt;br&gt;&lt;/td&gt;&lt;/tr&gt;&lt;tr&gt;&lt;td&gt;&lt;br&gt;&lt;/td&gt;&lt;td&gt;context_id&lt;/td&gt;&lt;td&gt;ui&lt;/td&gt;&lt;td&gt;&lt;br&gt;&lt;/td&gt;&lt;/tr&gt;&lt;tr&gt;&lt;td&gt;&lt;/td&gt;&lt;td&gt;params&lt;/td&gt;&lt;td&gt;nvarchar(255)&lt;br&gt;&lt;/td&gt;&lt;td&gt;null&lt;/td&gt;&lt;/tr&gt;&lt;tr&gt;&lt;td&gt;&lt;/td&gt;&lt;td&gt;audit *&lt;/td&gt;&lt;td&gt;&lt;/td&gt;&lt;td&gt;&lt;/td&gt;&lt;/tr&gt;&lt;/tbody&gt;&lt;/table&gt;" style="fontFamily=Lucida Console;fontSize=11;align=left;overflow=fill;strokeColor=none;labelBorderColor=#999999;html=1;" parent="wcxuSlMPL5jlp5jmsRLV-1" vertex="1">
          <mxGeometry x="10" y="80" width="300" height="160" as="geometry" />
        </mxCell>
        <mxCell id="wcxuSlMPL5jlp5jmsRLV-3" value="&lt;table border=&quot;1&quot; style=&quot;border: 1px solid #999999 ; width: 100% ; height: 100% ; border-collapse: collapse&quot; cellpadding=&quot;5&quot;&gt;&lt;tbody&gt;&lt;tr&gt;&lt;td&gt;&lt;b&gt;context_type&lt;/b&gt;&lt;/td&gt;&lt;td style=&quot;line-height: 120%&quot;&gt;&lt;b&gt;context_detail&lt;/b&gt;&lt;/td&gt;&lt;td&gt;&lt;b&gt;params&lt;/b&gt;&lt;/td&gt;&lt;/tr&gt;&lt;tr&gt;&lt;td&gt;INNOVATION&lt;/td&gt;&lt;td&gt;LOCK_USER&lt;/td&gt;&lt;td&gt;{&lt;br&gt;&amp;nbsp; to: validate!!!&lt;br&gt;}&lt;br&gt;&lt;/td&gt;&lt;/tr&gt;&lt;tr&gt;&lt;td&gt;&lt;br&gt;&lt;/td&gt;&lt;td&gt;NOT FINAL YET!!!!!!!!!&lt;/td&gt;&lt;td&gt;&lt;br&gt;&lt;/td&gt;&lt;/tr&gt;&lt;/tbody&gt;&lt;/table&gt;" style="resizable=0;autosize=1;fontFamily=Lucida Console;fontSize=11;align=left;overflow=fill;strokeColor=none;spacing=0;html=1;" parent="wcxuSlMPL5jlp5jmsRLV-1" vertex="1">
          <mxGeometry x="640" y="80" width="390" height="100" as="geometry" />
        </mxCell>
        <mxCell id="wcxuSlMPL5jlp5jmsRLV-4" value="&lt;font style=&quot;font-size: 24px&quot;&gt;Notifications tables&lt;br&gt;&lt;/font&gt;This schema represents core/system tables and content. All content is populated trought &lt;b&gt;seeds (versioned content), never by user&lt;/b&gt; interaction!" style="text;html=1;align=left;verticalAlign=middle;resizable=0;points=[];autosize=1;" parent="wcxuSlMPL5jlp5jmsRLV-1" vertex="1">
          <mxGeometry x="10" y="10" width="780" height="40" as="geometry" />
        </mxCell>
        <mxCell id="tfYzgQR9oQh27dD4l6XZ-1" value="&lt;div style=&quot;box-sizing: border-box ; width: 100% ; line-height: 30px ; background: rgba(125 , 125 , 125 , 0.4) ; padding: 0px 5px&quot;&gt;dbo.notification_preference&lt;/div&gt;&lt;table style=&quot;width: 100% ; padding: 0px 2px&quot;&gt;&lt;tbody&gt;&lt;tr&gt;&lt;td&gt;PK&lt;/td&gt;&lt;td&gt;notification_type&lt;/td&gt;&lt;td&gt;nvarchar(255)&lt;/td&gt;&lt;td&gt;&lt;br&gt;&lt;/td&gt;&lt;/tr&gt;&lt;tr&gt;&lt;td&gt;PK FK&lt;/td&gt;&lt;td&gt;user_role_id&lt;/td&gt;&lt;td&gt;nvarchar(255)&lt;/td&gt;&lt;td&gt;&lt;/td&gt;&lt;/tr&gt;&lt;tr&gt;&lt;td&gt;&lt;br&gt;&lt;/td&gt;&lt;td&gt;preference&lt;/td&gt;&lt;td&gt;nvarchar(100)&lt;/td&gt;&lt;td&gt;&lt;br&gt;&lt;/td&gt;&lt;/tr&gt;&lt;tr&gt;&lt;td&gt;&lt;/td&gt;&lt;td&gt;audit *&lt;/td&gt;&lt;td&gt;&lt;/td&gt;&lt;td&gt;&lt;/td&gt;&lt;/tr&gt;&lt;/tbody&gt;&lt;/table&gt;" style="fontFamily=Lucida Console;fontSize=11;align=left;overflow=fill;strokeColor=none;labelBorderColor=#999999;html=1;" parent="wcxuSlMPL5jlp5jmsRLV-1" vertex="1">
          <mxGeometry x="10" y="280" width="300" height="110" as="geometry" />
        </mxCell>
        <mxCell id="tfYzgQR9oQh27dD4l6XZ-2" value="&lt;table border=&quot;1&quot; style=&quot;border: 1px solid #999999 ; width: 100% ; height: 100% ; border-collapse: collapse&quot; cellpadding=&quot;5&quot;&gt;&lt;tbody&gt;&lt;tr&gt;&lt;td&gt;&lt;b&gt;notification_id&lt;/b&gt;&lt;/td&gt;&lt;td&gt;&lt;b&gt;preference&lt;/b&gt;&lt;/td&gt;&lt;/tr&gt;&lt;tr&gt;&lt;td&gt;ACTION&lt;/td&gt;&lt;td&gt;NEVER&lt;/td&gt;&lt;/tr&gt;&lt;tr&gt;&lt;td&gt;SUPPORT&lt;br&gt;&lt;/td&gt;&lt;td&gt;INSTANTLY&lt;/td&gt;&lt;/tr&gt;&lt;tr&gt;&lt;td&gt;COMMENT&lt;br&gt;&lt;/td&gt;&lt;td&gt;DAILY&lt;/td&gt;&lt;/tr&gt;&lt;/tbody&gt;&lt;/table&gt;" style="resizable=0;autosize=1;fontFamily=Lucida Console;fontSize=11;align=left;overflow=fill;strokeColor=none;spacing=0;html=1;" parent="wcxuSlMPL5jlp5jmsRLV-1" vertex="1">
          <mxGeometry x="320" y="280" width="210" height="100" as="geometry" />
        </mxCell>
        <mxCell id="tfYzgQR9oQh27dD4l6XZ-3" value="&lt;div style=&quot;box-sizing: border-box ; width: 100% ; line-height: 30px ; background: rgba(125 , 125 , 125 , 0.4) ; padding: 0px 5px&quot;&gt;dbo.notification_user&lt;/div&gt;&lt;table style=&quot;width: 100% ; padding: 0px 2px&quot;&gt;&lt;tbody&gt;&lt;tr&gt;&lt;td&gt;PK FK&lt;/td&gt;&lt;td&gt;notification_id&lt;/td&gt;&lt;td&gt;ui&lt;/td&gt;&lt;td&gt;&lt;br&gt;&lt;/td&gt;&lt;/tr&gt;&lt;tr&gt;&lt;td&gt;PK FK&lt;/td&gt;&lt;td&gt;user_id&lt;/td&gt;&lt;td&gt;ui&lt;/td&gt;&lt;td&gt;&lt;/td&gt;&lt;/tr&gt;&lt;tr&gt;&lt;td&gt;&lt;br&gt;&lt;/td&gt;&lt;td&gt;read_at&lt;/td&gt;&lt;td&gt;datetime2&lt;/td&gt;&lt;td&gt;null&lt;/td&gt;&lt;/tr&gt;&lt;tr&gt;&lt;td&gt;&lt;/td&gt;&lt;td&gt;audit *&lt;/td&gt;&lt;td&gt;&lt;/td&gt;&lt;td&gt;&lt;/td&gt;&lt;/tr&gt;&lt;/tbody&gt;&lt;/table&gt;" style="fontFamily=Lucida Console;fontSize=11;align=left;overflow=fill;strokeColor=none;labelBorderColor=#999999;html=1;" parent="wcxuSlMPL5jlp5jmsRLV-1" vertex="1">
          <mxGeometry x="320" y="80" width="280" height="110" as="geometry" />
        </mxCell>
      </root>
    </mxGraphModel>
  </diagram>
  <diagram name="Other" id="0_9qpvZZf4lPT2hU1pUG">
    <mxGraphModel dx="662" dy="712" grid="1" gridSize="10" guides="1" tooltips="1" connect="1" arrows="1" fold="1" page="1" pageScale="1" pageWidth="1654" pageHeight="1169" math="0" shadow="0">
      <root>
        <mxCell id="0KMKFuP6rz-rqKa7n4nq-0" />
        <mxCell id="0KMKFuP6rz-rqKa7n4nq-1" parent="0KMKFuP6rz-rqKa7n4nq-0" />
        <mxCell id="0KMKFuP6rz-rqKa7n4nq-2" value="&lt;div style=&quot;box-sizing: border-box ; width: 100% ; line-height: 30px ; background: rgba(125 , 125 , 125 , 0.4) ; padding: 0px 5px&quot;&gt;dbo.terms_of_use&lt;/div&gt;&lt;table style=&quot;width: 100% ; padding: 0px 2px&quot;&gt;&lt;tbody&gt;&lt;tr&gt;&lt;td&gt;PK&lt;/td&gt;&lt;td&gt;id&lt;/td&gt;&lt;td&gt;ui&lt;/td&gt;&lt;td&gt;&lt;/td&gt;&lt;/tr&gt;&lt;tr&gt;&lt;td&gt;&lt;br&gt;&lt;/td&gt;&lt;td&gt;name&lt;/td&gt;&lt;td&gt;nvarchar(500)&lt;/td&gt;&lt;td&gt;&lt;/td&gt;&lt;/tr&gt;&lt;tr&gt;&lt;td&gt;&lt;/td&gt;&lt;td&gt;tou_type&lt;/td&gt;&lt;td&gt;nvarchar(100)&lt;br&gt;&lt;/td&gt;&lt;td&gt;&lt;/td&gt;&lt;/tr&gt;&lt;tr&gt;&lt;td&gt;&lt;/td&gt;&lt;td&gt;summary&lt;/td&gt;&lt;td&gt;nvarchar(2000)&lt;/td&gt;&lt;td&gt;null&lt;/td&gt;&lt;/tr&gt;&lt;tr&gt;&lt;td&gt;&lt;/td&gt;&lt;td&gt;releasedAt&lt;/td&gt;&lt;td&gt;datetime2&lt;/td&gt;&lt;td&gt;null&lt;/td&gt;&lt;/tr&gt;&lt;tr&gt;&lt;td&gt;&lt;/td&gt;&lt;td&gt;audit *&lt;/td&gt;&lt;td&gt;&lt;/td&gt;&lt;td&gt;&lt;/td&gt;&lt;/tr&gt;&lt;/tbody&gt;&lt;/table&gt;" style="fontFamily=Lucida Console;fontSize=11;align=left;overflow=fill;strokeColor=none;labelBorderColor=#999999;html=1;" parent="0KMKFuP6rz-rqKa7n4nq-1" vertex="1">
          <mxGeometry x="10" y="80" width="270" height="140" as="geometry" />
        </mxCell>
        <mxCell id="0KMKFuP6rz-rqKa7n4nq-4" value="&lt;font style=&quot;font-size: 24px&quot;&gt;General tables&lt;br&gt;&lt;/font&gt;This schema represents general tables used accross the service." style="text;html=1;align=left;verticalAlign=middle;resizable=0;points=[];autosize=1;" parent="0KMKFuP6rz-rqKa7n4nq-1" vertex="1">
          <mxGeometry x="10" y="10" width="360" height="40" as="geometry" />
        </mxCell>
        <mxCell id="1Db0p4ObeioXLAAfjTYA-0" value="&lt;div style=&quot;box-sizing: border-box ; width: 100% ; line-height: 30px ; background: rgba(125 , 125 , 125 , 0.4) ; padding: 0px 5px&quot;&gt;dbo.terms_of_user&lt;/div&gt;&lt;table style=&quot;width: 100% ; padding: 0px 2px&quot;&gt;&lt;tbody&gt;&lt;tr&gt;&lt;td&gt;PK&lt;/td&gt;&lt;td&gt;id&lt;/td&gt;&lt;td&gt;ui&lt;/td&gt;&lt;td&gt;&lt;/td&gt;&lt;/tr&gt;&lt;tr&gt;&lt;td&gt;FK&lt;/td&gt;&lt;td&gt;tou_id&lt;/td&gt;&lt;td&gt;ui&lt;/td&gt;&lt;td&gt;&lt;/td&gt;&lt;/tr&gt;&lt;tr&gt;&lt;td&gt;&lt;/td&gt;&lt;td&gt;user_id&lt;/td&gt;&lt;td&gt;ui&lt;/td&gt;&lt;td&gt;&lt;/td&gt;&lt;/tr&gt;&lt;tr&gt;&lt;td&gt;&lt;/td&gt;&lt;td&gt;accepted_at&lt;/td&gt;&lt;td&gt;datetime2&lt;/td&gt;&lt;td&gt;&lt;br&gt;&lt;/td&gt;&lt;/tr&gt;&lt;tr&gt;&lt;td&gt;&lt;/td&gt;&lt;td&gt;audit *&lt;/td&gt;&lt;td&gt;&lt;/td&gt;&lt;td&gt;&lt;/td&gt;&lt;/tr&gt;&lt;/tbody&gt;&lt;/table&gt;" style="fontFamily=Lucida Console;fontSize=11;align=left;overflow=fill;strokeColor=none;labelBorderColor=#999999;html=1;" parent="0KMKFuP6rz-rqKa7n4nq-1" vertex="1">
          <mxGeometry x="290" y="80" width="270" height="140" as="geometry" />
        </mxCell>
        <mxCell id="_HqsLjqdg-sg7MpmjaH--0" value="&lt;div style=&quot;box-sizing: border-box ; width: 100% ; line-height: 30px ; background: rgba(125 , 125 , 125 , 0.4) ; padding: 0px 5px&quot;&gt;dbo.announcement&lt;/div&gt;&lt;table style=&quot;width: 100% ; padding: 0px 2px&quot;&gt;&lt;tbody&gt;&lt;tr&gt;&lt;td&gt;PK&lt;/td&gt;&lt;td&gt;id&lt;/td&gt;&lt;td&gt;ui&lt;/td&gt;&lt;td&gt;&lt;/td&gt;&lt;/tr&gt;&lt;tr&gt;&lt;td&gt;&lt;br&gt;&lt;/td&gt;&lt;td&gt;template&lt;/td&gt;&lt;td&gt;nvarchar(100)&lt;/td&gt;&lt;td&gt;&lt;/td&gt;&lt;/tr&gt;&lt;tr&gt;&lt;td&gt;&lt;/td&gt;&lt;td&gt;params&lt;/td&gt;&lt;td&gt;nvarchar(500)&lt;br&gt;&lt;/td&gt;&lt;td&gt;null&lt;/td&gt;&lt;/tr&gt;&lt;tr&gt;&lt;td&gt;&lt;br&gt;&lt;/td&gt;&lt;td&gt;target_roles&lt;/td&gt;&lt;td&gt;nvarchar(255)&lt;/td&gt;&lt;td&gt;&lt;br&gt;&lt;/td&gt;&lt;/tr&gt;&lt;tr&gt;&lt;td&gt;&lt;br&gt;&lt;/td&gt;&lt;td&gt;expires_at&lt;/td&gt;&lt;td&gt;datetime2&lt;/td&gt;&lt;td&gt;null&lt;/td&gt;&lt;/tr&gt;&lt;tr&gt;&lt;td&gt;&lt;br&gt;&lt;/td&gt;&lt;td&gt;audit *&lt;/td&gt;&lt;td&gt;&lt;br&gt;&lt;/td&gt;&lt;td&gt;&lt;br&gt;&lt;/td&gt;&lt;/tr&gt;&lt;/tbody&gt;&lt;/table&gt;" style="fontFamily=Lucida Console;fontSize=11;align=left;overflow=fill;strokeColor=none;labelBorderColor=#999999;html=1;" parent="0KMKFuP6rz-rqKa7n4nq-1" vertex="1">
          <mxGeometry x="10" y="280" width="270" height="140" as="geometry" />
        </mxCell>
        <mxCell id="_HqsLjqdg-sg7MpmjaH--1" value="&lt;div style=&quot;box-sizing: border-box ; width: 100% ; line-height: 30px ; background: rgba(125 , 125 , 125 , 0.4) ; padding: 0px 5px&quot;&gt;dbo.announcement_user&lt;/div&gt;&lt;table style=&quot;width: 100% ; padding: 0px 2px&quot;&gt;&lt;tbody&gt;&lt;tr&gt;&lt;td&gt;PK&lt;/td&gt;&lt;td&gt;id&lt;/td&gt;&lt;td&gt;BIGINT&lt;/td&gt;&lt;td&gt;&lt;/td&gt;&lt;/tr&gt;&lt;tr&gt;&lt;td&gt;FK&lt;/td&gt;&lt;td&gt;announcement_id&lt;/td&gt;&lt;td&gt;ui&lt;/td&gt;&lt;td&gt;&lt;/td&gt;&lt;/tr&gt;&lt;tr&gt;&lt;td&gt;FK&lt;/td&gt;&lt;td&gt;user_id&lt;/td&gt;&lt;td&gt;ui&lt;/td&gt;&lt;td&gt;&lt;br&gt;&lt;/td&gt;&lt;/tr&gt;&lt;tr&gt;&lt;td&gt;&lt;br&gt;&lt;/td&gt;&lt;td&gt;target_roles&lt;/td&gt;&lt;td&gt;nvarchar(255)&lt;/td&gt;&lt;td&gt;&lt;br&gt;&lt;/td&gt;&lt;/tr&gt;&lt;tr&gt;&lt;td&gt;&lt;/td&gt;&lt;td&gt;read_at&lt;/td&gt;&lt;td&gt;datetime2&lt;/td&gt;&lt;td&gt;null&lt;/td&gt;&lt;/tr&gt;&lt;tr&gt;&lt;td&gt;&lt;br&gt;&lt;/td&gt;&lt;td&gt;deleted_at&lt;/td&gt;&lt;td&gt;datetime2&lt;/td&gt;&lt;td&gt;null&lt;/td&gt;&lt;/tr&gt;&lt;/tbody&gt;&lt;/table&gt;" style="fontFamily=Lucida Console;fontSize=11;align=left;overflow=fill;strokeColor=none;labelBorderColor=#999999;html=1;" parent="0KMKFuP6rz-rqKa7n4nq-1" vertex="1">
          <mxGeometry x="300" y="280" width="270" height="140" as="geometry" />
        </mxCell>
        <mxCell id="W_S0gSjv1mEJ8jtkbhvh-0" value="&lt;table border=&quot;1&quot; style=&quot;border: 1px solid rgb(153, 153, 153); width: 100%; height: 100%; border-collapse: collapse;&quot; cellpadding=&quot;5&quot;&gt;&lt;tbody&gt;&lt;tr&gt;&lt;td&gt;&lt;b&gt;template&lt;/b&gt;&lt;/td&gt;&lt;td&gt;&lt;b&gt;params&lt;/b&gt;&lt;/td&gt;&lt;/tr&gt;&lt;tr&gt;&lt;td&gt;GENERIC_ANNOUNCEMENT *&lt;/td&gt;&lt;td&gt;&lt;p style=&quot;margin: 0px; font-variant-numeric: normal; font-variant-east-asian: normal; font-stretch: normal; line-height: normal; font-family: &amp;quot;Helvetica Neue&amp;quot;;&quot; class=&quot;p1&quot;&gt;{&lt;/p&gt;&lt;p style=&quot;margin: 0px; font-variant-numeric: normal; font-variant-east-asian: normal; font-stretch: normal; line-height: normal; font-family: &amp;quot;Helvetica Neue&amp;quot;;&quot; class=&quot;p1&quot;&gt; &lt;span style=&quot;&quot;&gt; &lt;/span&gt;&lt;span style=&quot;&quot;&gt; &lt;/span&gt;&lt;span style=&quot;white-space: pre;&quot;&gt; &lt;/span&gt;title: string,&lt;/p&gt;&lt;p style=&quot;margin: 0px; font-variant-numeric: normal; font-variant-east-asian: normal; font-stretch: normal; line-height: normal; font-family: &amp;quot;Helvetica Neue&amp;quot;;&quot; class=&quot;p1&quot;&gt;&lt;span style=&quot;&quot; class=&quot;Apple-tab-span&quot;&gt; &lt;/span&gt;&lt;span style=&quot;&quot;&gt; &lt;/span&gt;&lt;span style=&quot;&quot;&gt; &lt;/span&gt;&lt;span style=&quot;white-space: pre;&quot;&gt; &lt;/span&gt;inset?: { title: string, description: string, link?: { label: string, url: string } },&lt;/p&gt;&lt;p style=&quot;margin: 0px; font-variant-numeric: normal; font-variant-east-asian: normal; font-stretch: normal; line-height: normal; font-family: &amp;quot;Helvetica Neue&amp;quot;;&quot; class=&quot;p1&quot;&gt;&lt;span style=&quot;&quot; class=&quot;Apple-tab-span&quot;&gt; &lt;/span&gt;&lt;span style=&quot;&quot;&gt; &lt;/span&gt;&lt;span style=&quot;&quot;&gt; &lt;/span&gt;&lt;span style=&quot;white-space: pre;&quot;&gt; &lt;/span&gt;description?: string[],&lt;/p&gt;&lt;p style=&quot;margin: 0px; font-variant-numeric: normal; font-variant-east-asian: normal; font-stretch: normal; line-height: normal; font-family: &amp;quot;Helvetica Neue&amp;quot;;&quot; class=&quot;p1&quot;&gt;&lt;span style=&quot;&quot; class=&quot;Apple-tab-span&quot;&gt; &lt;/span&gt;&lt;span style=&quot;&quot;&gt; &lt;/span&gt;&lt;span style=&quot;&quot;&gt; &lt;/span&gt;&lt;span style=&quot;white-space: pre;&quot;&gt; &lt;/span&gt;secondaryAction?: { label: string, url: string }&lt;/p&gt;&lt;p style=&quot;margin: 0px; font-variant-numeric: normal; font-variant-east-asian: normal; font-stretch: normal; line-height: normal; font-family: &amp;quot;Helvetica Neue&amp;quot;;&quot; class=&quot;p1&quot;&gt;}&lt;/p&gt;&lt;/td&gt;&lt;/tr&gt;&lt;/tbody&gt;&lt;/table&gt;" style="resizable=0;autosize=1;fontFamily=Lucida Console;fontSize=11;align=left;overflow=fill;strokeColor=none;spacing=0;html=1;" parent="0KMKFuP6rz-rqKa7n4nq-1" vertex="1">
          <mxGeometry x="10" y="450" width="580" height="120" as="geometry" />
        </mxCell>
        <mxCell id="srkmim1xGxJW-R2SGetg-0" value="&lt;table border=&quot;1&quot; style=&quot;border: 1px solid #999999 ; width: 100% ; height: 100% ; border-collapse: collapse&quot; cellpadding=&quot;5&quot;&gt;&lt;tbody&gt;&lt;tr&gt;&lt;td&gt;&lt;b&gt;target_roles&lt;/b&gt;&lt;/td&gt;&lt;/tr&gt;&lt;tr&gt;&lt;td&gt;INNOVATOR&lt;/td&gt;&lt;/tr&gt;&lt;tr&gt;&lt;td&gt;ACCESSOR&lt;span style=&quot;white-space: pre;&quot;&gt; &lt;/span&gt;&lt;/td&gt;&lt;/tr&gt;&lt;tr&gt;&lt;td&gt;QUALIFYING_ACCESSOR&lt;/td&gt;&lt;/tr&gt;&lt;tr&gt;&lt;td&gt;NEEDS_ASSESSOR&lt;/td&gt;&lt;/tr&gt;&lt;/tbody&gt;&lt;/table&gt;" style="resizable=0;autosize=1;fontFamily=Lucida Console;fontSize=11;align=left;overflow=fill;strokeColor=none;spacing=0;html=1;" parent="0KMKFuP6rz-rqKa7n4nq-1" vertex="1">
          <mxGeometry x="10" y="585" width="160" height="130" as="geometry" />
        </mxCell>
      </root>
    </mxGraphModel>
  </diagram>
</mxfile>
